<svg width="440" height="956" viewBox="0 0 440 956" fill="none" xmlns="http://www.w3.org/2000/svg">
<g clip-path="url(#clip0_806_2)">
<rect width="440" height="956" fill="white"/>
<path d="M153.301 954.54C203.767 946.628 209.817 980.602 202.371 1000.85C194.925 1021.09 183.988 1016.67 184.686 998.054C185.385 979.439 178.097 959.762 146.717 960.564L153.301 954.54Z" fill="#41C8F9"/>
<path d="M154.524 957.045V954.887C154.524 954.887 188.335 952.192 201.472 970.377C203.238 973.859 204.281 977.636 204.73 981.47C198.48 962.768 183.341 958.019 154.524 957.045Z" fill="#61EFFF"/>
<path d="M44.3597 954.192C28.6762 968.821 68.4723 984.628 98.2157 984.628C127.959 984.628 165.07 975.639 165.07 954.192C165.07 932.746 136.175 915.359 106.432 915.359C76.6875 915.359 71.1847 929.173 44.3597 954.192Z" fill="#41B2FC"/>
<path d="M44.3621 954.192C71.187 929.172 76.6899 915.359 106.434 915.359C112.712 915.359 118.949 916.142 124.887 917.565C101.501 917.667 81.1238 940.14 75.3822 943.615C68.867 947.558 63.7479 944.206 63.7479 944.206C63.7479 944.206 60.6063 944.387 60.0834 946.495C59.6249 948.343 53.5398 953.311 44.0589 954.491C44.1611 954.392 44.2556 954.291 44.3621 954.192Z" fill="#61EFFF"/>
<path d="M98.2157 984.629C72.215 984.629 38.5357 972.551 40.9458 959.739C62.6019 958.969 86.4775 952.677 111.254 936.871L152.107 930.516C160.076 937.07 165.07 945.28 165.07 954.194C165.07 975.641 127.96 984.629 98.2157 984.629Z" fill="#359AD3"/>
<path d="M91.8465 939.715C104.054 931.657 128.362 923.91 147.105 926.865C157.933 933.882 165.07 943.535 165.07 954.193C165.07 957.834 163.998 961.115 162.076 964.055C156.719 955.208 132.604 953.793 113.997 962.477C86.5625 975.279 71.5247 953.128 91.8465 939.715Z" fill="#2C4568"/>
<path d="M123.576 950.817C137.559 910.967 68.1241 895.174 -1.00072 904.693C-1.00072 904.693 67.6707 926.693 84.3854 932.683C101.1 938.673 91.7678 941.041 88.0071 947.728C84.3537 954.224 106.333 969.133 121.575 954.015C122.476 953.12 123.155 952.015 123.576 950.817Z" fill="#41C8F9"/>
<path d="M164.974 909.373C186.898 907.246 190.362 916.219 190.796 916.518C199.282 921.826 197.67 918.598 198.707 929.41C198.707 929.41 195.386 937.191 187.295 942.237C182.976 946.882 176.406 950.161 168.823 950.864C154.612 952.183 142.231 943.964 141.168 932.506C140.105 921.048 150.768 910.751 164.974 909.373Z" fill="#41C8F9"/>
<path d="M167.758 950.999C156.124 952.443 144.838 955.604 136.113 950.999C127.386 946.393 125.752 933.994 131.459 930.114C137.166 926.235 144.931 919.879 144.931 919.879L167.758 950.999Z" fill="#41C8F9"/>
<path d="M173.258 934.949C168.502 936.826 165.073 934.993 165.073 934.993C177.046 936.855 180.209 925.103 198.707 929.408C198.707 929.408 198.454 929.999 197.921 930.957C190.23 927.026 177.892 933.12 173.258 934.949Z" fill="#2C4568"/>
<path d="M125.7 952.944C125.7 954.017 127.028 954.888 128.666 954.888C130.305 954.888 131.633 954.017 131.633 952.944C131.633 951.871 130.305 951 128.666 951C127.028 951 125.7 951.871 125.7 952.944Z" fill="#41C8F9"/>
<path d="M127.939 948.765C127.939 949.206 128.297 949.565 128.739 949.565C129.18 949.565 129.539 949.207 129.539 948.765C129.539 948.323 129.181 947.965 128.739 947.965C128.297 947.966 127.939 948.324 127.939 948.765Z" fill="#41C8F9"/>
<path d="M125.701 931.999C125.701 932.819 126.364 933.483 127.184 933.483C128.003 933.483 128.668 932.819 128.668 931.999C128.668 931.18 128.004 930.516 127.184 930.516C126.364 930.516 125.701 931.18 125.701 931.999Z" fill="#41C8F9"/>
<path d="M125.382 946.497C125.382 947.308 125.954 947.966 126.66 947.966C127.366 947.966 127.938 947.308 127.938 946.497C127.938 945.685 127.366 945.027 126.66 945.027C125.954 945.027 125.382 945.685 125.382 946.497Z" fill="#41C8F9"/>
<path d="M125.086 950.658C124.508 950.658 124.04 950.345 124.04 949.96C124.04 949.574 124.508 949.262 125.086 949.262C125.664 949.262 126.133 949.574 126.133 949.96C126.133 950.345 125.664 950.658 125.086 950.658Z" fill="#41C8F9"/>
<path d="M131.414 950.374C131.414 950.819 131.834 951.181 132.351 951.181C132.869 951.181 133.289 950.819 133.289 950.374C133.289 949.928 132.869 949.566 132.351 949.566C131.834 949.566 131.414 949.928 131.414 950.374Z" fill="#41C8F9"/>
<path d="M132.945 953.798C132.945 954.4 133.932 954.888 135.148 954.888C136.365 954.888 137.352 954.399 137.352 953.798C137.352 953.196 136.365 952.707 135.148 952.707C133.932 952.707 132.945 953.195 132.945 953.798Z" fill="#41C8F9"/>
<path d="M129.146 946.982C129.146 947.373 129.371 947.69 129.647 947.69C129.924 947.69 130.148 947.373 130.148 946.982C130.148 946.591 129.923 946.273 129.647 946.273C129.371 946.274 129.146 946.591 129.146 946.982Z" fill="#41C8F9"/>
<path d="M194.636 921.027C194.636 921.027 195.828 922.773 195.101 923.907C195.101 923.907 194.287 923.18 194.636 921.027Z" fill="#2C4568"/>
<path d="M131.461 930.114C137.168 926.235 144.933 919.879 144.933 919.879C129.087 940.486 156.125 946.742 172.938 939.722C185.156 934.62 193.647 933.15 193.36 937.2C191.747 938.934 189.74 940.707 187.296 942.232C182.977 946.878 176.407 950.156 168.823 950.859C168.453 950.894 168.084 950.918 167.717 950.939L167.76 950.999C156.125 952.443 144.84 955.604 136.114 950.999C127.389 946.393 125.754 933.994 131.461 930.114Z" fill="#359AD3"/>
<path d="M88.0044 947.726C91.7651 941.04 101.097 938.672 84.3827 932.682C71.7945 928.171 29.7446 914.581 9.74476 908.145C31.0522 910.796 59.4819 918.914 68.4004 919.879C81.4308 921.289 85.1538 924.403 85.1538 924.403C79.3366 925.45 92.8324 929.988 97.4861 930.114C102.14 930.241 98.1841 926.221 98.1841 926.221C109.004 932.893 122.509 939.343 124.349 933.944C125.904 938.981 125.752 944.606 123.573 950.815C123.153 952.014 122.474 953.118 121.572 954.013C106.331 969.131 84.351 954.222 88.0044 947.726Z" fill="#359AD3"/>
<path d="M166.536 927.053C167.715 938.844 153.534 930.195 156.065 927.839C158.595 925.482 166.361 925.308 166.536 927.053Z" fill="#359AD3"/>
<path d="M159.82 922.925C156.854 926.789 153.996 927.662 153.723 926.222C153.45 924.782 157.377 920.981 159.82 922.925Z" fill="#359AD3"/>
<path d="M154.086 934.004C150.828 939.589 143.15 934.761 144.662 930.863C146.175 926.965 152.13 929.179 152.729 930.515C153.329 931.852 154.086 934.004 154.086 934.004Z" fill="#359AD3"/>
<path d="M149.96 922.924C151.472 925.8 150.48 927.23 147.108 926.863C143.735 926.497 144.82 923.654 146.314 921.759C147.808 919.865 149.96 922.924 149.96 922.924Z" fill="#359AD3"/>
<path d="M163.527 939.877C159.688 935.209 158.205 933.333 155.019 937.347C151.835 941.361 158.466 941.929 163.527 939.877Z" fill="#359AD3"/>
<path d="M160.387 914.092C154.951 923.973 154.758 926.047 150.832 921.465C146.906 916.884 156.068 912.958 160.387 914.092Z" fill="#359AD3"/>
<path d="M166.145 915.14C165.272 920.899 160.56 921.991 159.993 920.333C159.426 918.675 162.742 912.174 166.145 915.14Z" fill="#359AD3"/>
<path d="M156.023 942.848C150.483 943.372 153.711 940.186 150.831 938.79C147.952 937.394 143.283 938.702 143.24 938.964C143.197 939.226 146.718 943.774 146.718 943.774H153.493L156.023 942.848Z" fill="#359AD3"/>
<path d="M139.748 936.3C143.588 932.461 144.591 936.296 143.5 931.28C142.41 926.265 140.228 926.132 139.574 926.874C138.919 927.617 139.748 936.3 139.748 936.3Z" fill="#359AD3"/>
<path d="M157.288 912.041C156.779 911.978 156.348 911.802 155.98 911.584C158.735 910.451 161.762 909.68 164.973 909.369C168.219 909.054 171.052 908.987 173.539 909.095C166.103 915.119 159.138 912.268 157.288 912.041Z" fill="#359AD3"/>
<path d="M120.641 933.106C120.641 933.106 109.588 919.633 72.0094 913.351C34.4302 907.068 4.41377 905.562 4.41377 905.562C4.41377 905.562 44.3197 905.134 70.8459 909.475C97.3712 913.816 112.54 918.247 120.641 933.106Z" fill="#61EFFF"/>
<path d="M178.802 924.431C175.133 924.431 172.159 921.93 172.159 918.844C172.159 915.759 175.133 913.258 178.802 913.258C182.471 913.258 185.445 915.759 185.445 918.844C185.445 921.93 182.471 924.431 178.802 924.431Z" fill="#359AD3"/>
<path d="M184.453 920.203C183.387 921.373 182.562 914.739 174.343 915.804C174.343 915.804 175.641 920.857 179.922 921.786C184.203 922.714 184.453 920.203 184.453 920.203Z" fill="#2C4568"/>
<path d="M183.487 910.91C189.194 913.065 190.537 916.335 190.795 916.513C193.846 918.421 195.588 919.226 196.621 919.977C195.105 920.416 191.388 920.156 189.516 918.839C187.698 917.561 188.324 913.928 183.487 910.91Z" fill="#61EFFF"/>
<path opacity="0.75" d="M356.227 21.4333C356.227 21.4333 355.003 25.3999 354.857 25.3999C354.711 25.3999 349.281 29.4594 349.575 34.5799C349.869 39.7003 354.417 44.0371 354.417 44.0371L356.227 48.5581C356.227 48.5581 350.798 48.4202 348.5 45.1909C346.201 41.9616 343.903 39.1024 342.876 38.4101C341.85 37.7178 337.839 36.5654 337.839 36.5654L327.764 40.0255L324.44 44.3622C324.44 44.3622 321.359 42.609 320.233 41.4101L313.045 41.548L315.685 45.3767C315.685 45.3767 311.97 43.3013 311.088 41.5016C311.088 41.5016 294.559 40.3027 292.602 35.5509C290.646 30.7991 307.811 30.0154 310.305 29.9225C310.305 29.9225 312.505 24.6641 317.738 22.5872C317.738 22.5872 320.622 24.9399 322.384 28.9065L317.836 29.8745C317.836 29.8745 333.386 32.2736 335.783 32.4115C338.179 32.5494 342.287 31.5349 343.119 30.8425C343.952 30.1517 348.892 20.5102 356.227 21.4333Z" fill="#1B427D"/>
<path opacity="0.74" d="M321.277 -2.28013C321.277 -2.28013 320.486 0.285357 320.393 0.285357C320.297 0.285357 316.788 2.90927 316.977 6.22101C317.168 9.53125 320.108 12.335 320.108 12.335L321.277 15.2586C321.277 15.2586 317.768 15.1687 316.281 13.0812C314.796 10.9938 313.309 9.14462 312.645 8.69656C311.981 8.2485 309.389 7.50373 309.389 7.50373L302.875 9.74104L300.726 12.5448C300.726 12.5448 298.734 11.4119 298.007 10.6357L293.359 10.7256L295.066 13.2011C295.066 13.2011 292.663 11.8585 292.094 10.6956C292.094 10.6956 281.408 9.91937 280.143 6.84739C278.879 3.77542 289.976 3.2689 291.589 3.20896C291.589 3.20896 293.012 -0.191181 296.394 -1.53386C296.394 -1.53386 298.259 -0.012849 299.398 2.55263L296.458 3.17901C296.458 3.17901 306.512 4.72998 308.061 4.81989C309.609 4.90981 312.265 4.25345 312.804 3.80539C313.341 3.35583 316.534 -2.87654 321.277 -2.28013Z" fill="#1B427D"/>
<path opacity="0.75" d="M273.266 -8.45201C273.266 -8.45201 272.475 -5.88655 272.381 -5.88655C272.285 -5.88655 268.776 -3.26263 268.965 0.0491062C269.155 3.35935 272.095 6.16309 272.095 6.16309L273.266 9.08672C273.266 9.08672 269.757 8.9968 268.27 6.90936C266.784 4.82191 265.298 2.97274 264.633 2.52468C263.969 2.07812 261.377 1.33185 261.377 1.33185L254.864 3.56916L252.713 6.37288C252.713 6.37288 250.721 5.24002 249.993 4.46378L245.345 4.55369L247.053 7.02924C247.053 7.02924 244.65 5.68657 244.081 4.52371C244.081 4.52371 233.395 3.74897 232.13 0.676998C230.866 -2.39498 241.963 -2.90147 243.576 -2.96141C243.576 -2.96141 244.999 -6.36158 248.381 -7.70426C248.381 -7.70426 250.246 -6.18325 251.385 -3.61777L248.445 -2.99139C248.445 -2.99139 258.499 -1.44041 260.049 -1.3505C261.598 -1.26059 264.254 -1.91695 264.791 -2.36501C265.331 -2.81456 268.524 -9.04842 273.266 -8.45201Z" fill="#1B427D"/>
<path opacity="0.74" d="M369.523 53.0089C369.523 53.0089 368.732 55.5744 368.639 55.5744C368.545 55.5744 365.034 58.1983 365.225 61.5101C365.414 64.8203 368.354 67.6241 368.354 67.6241L369.523 70.5477C369.523 70.5477 366.014 70.4578 364.527 68.3703C363.042 66.2829 361.555 64.4337 360.891 63.9856C360.227 63.5391 357.635 62.7928 357.635 62.7928L351.122 65.0301L348.972 67.8338C348.972 67.8338 346.98 66.701 346.253 65.9247L341.605 66.0146L343.312 68.4902C343.312 68.4902 340.909 67.1475 340.34 65.9847C340.34 65.9847 329.654 65.2099 328.39 62.1365C327.125 59.0645 338.223 58.558 339.835 58.498C339.835 58.498 341.258 55.0979 344.64 53.7552C344.64 53.7552 346.505 55.2762 347.644 57.8417L344.704 58.4681C344.704 58.4681 354.758 60.019 356.307 60.109C357.856 60.1989 360.512 59.5425 361.048 59.0945C361.587 58.6449 364.78 52.4125 369.523 53.0089Z" fill="#1B427D"/>
<path opacity="0.75" d="M297.246 44.3207C297.246 44.3207 296.239 47.5875 296.118 47.5875C295.997 47.5875 291.529 50.9292 291.77 55.1446C292.012 59.3599 295.756 62.9294 295.756 62.9294L297.246 66.6517C297.246 66.6517 292.777 66.5379 290.885 63.8795C288.994 61.2211 287.102 58.8669 286.255 58.2975C285.41 57.728 282.109 56.778 282.109 56.778L273.815 59.6267L271.078 63.1962C271.078 63.1962 268.541 61.7531 267.615 60.7656L261.696 60.8794L263.871 64.0323C263.871 64.0323 260.811 62.324 260.087 60.842C260.087 60.842 246.479 59.8544 244.868 55.9433C243.258 52.0321 257.389 51.3863 259.442 51.3099C259.442 51.3099 261.253 46.9806 265.561 45.2708C265.561 45.2708 267.936 47.2084 269.386 50.4737L265.642 51.2709C265.642 51.2709 278.444 53.246 280.417 53.3598C282.39 53.4737 285.772 52.6376 286.457 52.0681C287.14 51.4972 291.206 43.561 297.246 44.3207Z" fill="#1B427D"/>
<path opacity="0.39" d="M294.905 15.0464C294.905 15.0464 294.374 16.7698 294.311 16.7698C294.247 16.7698 291.888 18.5335 292.017 20.7573C292.144 22.9811 294.12 24.8663 294.12 24.8663L294.906 26.8308C294.906 26.8308 292.549 26.7709 291.55 25.3683C290.55 23.9657 289.553 22.7234 289.106 22.4222C288.66 22.121 286.917 21.6205 286.917 21.6205L282.541 23.1235L281.097 25.0071C281.097 25.0071 279.758 24.2459 279.27 23.7244L276.147 23.7844L277.294 25.4477C277.294 25.4477 275.68 24.5456 275.297 23.7634C275.297 23.7634 268.115 23.2419 267.265 21.1784C266.416 19.1135 273.872 18.7733 274.957 18.7328C274.957 18.7328 275.913 16.4476 278.187 15.5455C278.187 15.5455 279.44 16.5675 280.206 18.2908L278.23 18.7118C278.23 18.7118 284.986 19.7533 286.028 19.8148C287.068 19.8747 288.854 19.4341 289.214 19.1329C289.573 18.8347 291.718 14.6463 294.905 15.0464Z" fill="#1B427D"/>
<path opacity="0.39" d="M363.207 3.98785C363.207 3.98785 362.676 5.71117 362.611 5.71117C362.548 5.71117 360.189 7.47493 360.317 9.69874C360.444 11.9225 362.421 13.8077 362.421 13.8077L363.207 15.7722C363.207 15.7722 360.848 15.7123 359.85 14.3097C358.851 12.9071 357.854 11.6648 357.407 11.3636C356.961 11.0624 355.218 10.5619 355.218 10.5619L350.842 12.0649L349.398 13.9486C349.398 13.9486 348.059 13.1873 347.571 12.6658L344.448 12.7258L345.595 14.3891C345.595 14.3891 343.981 13.487 343.598 12.7063C343.598 12.7063 336.416 12.1848 335.566 10.1213C334.716 8.05635 342.173 7.71618 343.258 7.67572C343.258 7.67572 344.214 5.39047 346.487 4.48836C346.487 4.48836 347.741 5.51035 348.507 7.23366L346.53 7.65475C346.53 7.65475 353.287 8.69622 354.329 8.75765C355.369 8.8176 357.155 8.37703 357.515 8.07582C357.874 7.77612 360.02 3.58775 363.207 3.98785Z" fill="#1B427D"/>
<path opacity="0.39" d="M277.324 29.5074C277.324 29.5074 276.794 31.2307 276.729 31.2307C276.665 31.2307 274.306 32.9944 274.433 35.2182C274.56 37.4436 276.536 39.3272 276.536 39.3272L277.323 41.2918C277.323 41.2918 274.964 41.2318 273.966 39.8292C272.967 38.4266 271.969 37.1828 271.523 36.8831C271.076 36.5819 269.334 36.0814 269.334 36.0814L264.957 37.5844L263.512 39.4681C263.512 39.4681 262.173 38.7068 261.685 38.1853L258.562 38.2453L259.709 39.9086C259.709 39.9086 258.093 39.0065 257.712 38.2258C257.712 38.2258 250.53 37.7043 249.68 35.6408C248.83 33.5759 256.287 33.2357 257.372 33.1953C257.372 33.1953 258.328 30.91 260.601 30.0079C260.601 30.0079 261.855 31.0299 262.621 32.7532L260.644 33.1743C260.644 33.1743 267.4 34.2157 268.441 34.2772C269.481 34.3371 271.267 33.8966 271.628 33.5954C271.991 33.2956 274.136 29.1073 277.324 29.5074Z" fill="#1B427D"/>
<path opacity="0.39" d="M229.367 36.4097C229.367 36.4097 228.837 38.133 228.771 38.133C228.708 38.133 226.349 39.8968 226.478 42.1221C226.605 44.3474 228.581 46.2311 228.581 46.2311L229.367 48.1956C229.367 48.1956 227.01 48.1357 226.011 46.7331C225.011 45.3304 224.014 44.0867 223.567 43.787C223.121 43.4858 221.378 42.9853 221.378 42.9853L217.002 44.4883L215.558 46.3719C215.558 46.3719 214.219 45.6107 213.731 45.0892L210.608 45.1491L211.755 46.8125C211.755 46.8125 210.141 45.9104 209.758 45.1296C209.758 45.1296 202.576 44.6081 201.726 42.5447C200.876 40.4797 208.333 40.1396 209.418 40.0991C209.418 40.0991 210.374 37.8138 212.648 36.9117C212.648 36.9117 213.901 37.9337 214.667 39.657L212.691 40.0781C212.691 40.0781 219.447 41.1196 220.489 41.181C221.529 41.241 223.315 40.8004 223.675 40.4992C224.034 40.198 226.181 36.0096 229.367 36.4097Z" fill="#1B427D"/>
<path opacity="0.39" d="M238.174 52.2593C238.174 52.2593 237.836 53.3548 237.796 53.3548C237.755 53.3548 236.257 54.4757 236.338 55.8903C236.419 57.3049 237.675 58.5022 237.675 58.5022L238.176 59.7505C238.176 59.7505 236.676 59.713 236.042 58.8214C235.407 57.9298 234.773 57.14 234.489 56.9482C234.206 56.7564 233.097 56.4387 233.097 56.4387L230.316 57.3948L229.397 58.5921C229.397 58.5921 228.546 58.1081 228.236 57.7769L226.251 57.8144L226.98 58.8724C226.98 58.8724 225.953 58.2984 225.71 57.8024C225.71 57.8024 221.145 57.4712 220.605 56.1585C220.065 54.8458 224.805 54.63 225.494 54.6045C225.494 54.6045 226.103 53.1525 227.547 52.5785C227.547 52.5785 228.344 53.2289 228.83 54.3243L227.574 54.5911C227.574 54.5911 231.868 55.2534 232.53 55.2924C233.192 55.3313 234.327 55.0511 234.555 54.8593C234.784 54.6675 236.149 52.0046 238.174 52.2593Z" fill="#1B427D"/>
<path opacity="0.39" d="M190.319 5.3531C190.319 5.3531 189.98 6.44852 189.941 6.44852C189.901 6.44852 188.401 7.56942 188.482 8.98403C188.563 10.3986 189.82 11.596 189.82 11.596L190.32 12.8442C190.32 12.8442 188.821 12.8068 188.187 11.9151C187.551 11.0235 186.918 10.2338 186.633 10.042C186.35 9.85017 185.242 9.53249 185.242 9.53249L182.46 10.4885L181.542 11.6859C181.542 11.6859 180.69 11.2019 180.381 10.8707L178.395 10.9081L179.124 11.9661C179.124 11.9661 178.098 11.3937 177.855 10.8961C177.855 10.8961 173.289 10.565 172.749 9.25227C172.209 7.93956 176.949 7.72377 177.639 7.69829C177.639 7.69829 178.247 6.24621 179.691 5.67228C179.691 5.67228 180.489 6.32265 180.975 7.41807L179.718 7.68631C179.718 7.68631 184.012 8.34866 184.675 8.38762C185.337 8.42659 186.471 8.14636 186.7 7.95455C186.929 7.76124 188.293 5.09835 190.319 5.3531Z" fill="#1B427D"/>
<path opacity="0.39" d="M400.573 27.4C400.573 27.4 400.234 28.4954 400.195 28.4954C400.153 28.4954 398.655 29.6163 398.736 31.0309C398.817 32.4455 400.074 33.6428 400.074 33.6428L400.574 34.8911C400.574 34.8911 399.075 34.8536 398.441 33.962C397.805 33.0704 397.172 32.2807 396.887 32.0889C396.603 31.897 395.496 31.5794 395.496 31.5794L392.714 32.5354L391.796 33.7327C391.796 33.7327 390.944 33.2487 390.635 32.9176L388.649 32.9565L389.378 34.0145C389.378 34.0145 388.352 33.4405 388.109 32.9445C388.109 32.9445 383.543 32.6133 383.003 31.3006C382.463 29.9879 387.203 29.7721 387.893 29.7467C387.893 29.7467 388.501 28.2946 389.945 27.7207C389.945 27.7207 390.743 28.371 391.229 29.4664L389.972 29.7347C389.972 29.7347 394.268 30.397 394.929 30.4345C395.591 30.4734 396.725 30.1932 396.954 30.0014C397.183 29.8081 398.547 27.1452 400.573 27.4Z" fill="#1B427D"/>
<path opacity="0.13" d="M394.916 94.5093C394.916 94.5093 394.578 95.6048 394.538 95.6048C394.497 95.6048 392.999 96.7256 393.08 98.1403C393.161 99.5549 394.418 100.752 394.418 100.752L394.918 102C394.918 102 393.418 101.963 392.785 101.071C392.149 100.18 391.515 99.39 391.231 99.1982C390.948 99.0064 389.839 98.6887 389.839 98.6887L387.058 99.6448L386.14 100.842C386.14 100.842 385.288 100.358 384.978 100.027L382.993 100.066L383.722 101.124C383.722 101.124 382.696 100.55 382.453 100.054C382.453 100.054 377.887 99.7227 377.347 98.41C376.807 97.0973 381.547 96.8815 382.237 96.856C382.237 96.856 382.845 95.404 384.289 94.83C384.289 94.83 385.086 95.4804 385.573 96.5758L384.316 96.8425C384.316 96.8425 388.61 97.5049 389.272 97.5439C389.935 97.5828 391.069 97.3011 391.298 97.1108C391.526 96.9175 392.889 94.2546 394.916 94.5093Z" fill="#1B427D"/>
<path opacity="0.13" d="M400.574 75.5054C400.574 75.5054 400.333 76.6009 400.304 76.6009C400.276 76.6009 399.203 77.7218 399.262 79.1364C399.319 80.551 400.217 81.7483 400.217 81.7483L400.574 82.9966C400.574 82.9966 399.504 82.9576 399.049 82.066C398.595 81.1744 398.142 80.3846 397.94 80.1928C397.737 80.001 396.946 79.6833 396.946 79.6833L394.959 80.6394L394.303 81.8367C394.303 81.8367 393.694 81.3527 393.473 81.0215L392.055 81.059L392.574 82.1169C392.574 82.1169 391.84 81.5445 391.667 81.047C391.667 81.047 388.406 80.7158 388.02 79.4031C387.634 78.0904 391.021 77.8746 391.513 77.8491C391.513 77.8491 391.947 76.3971 392.979 75.8231C392.979 75.8231 393.548 76.4735 393.896 77.5689L392.998 77.8371C392.998 77.8371 396.068 78.4995 396.539 78.5385C397.013 78.5759 397.823 78.2972 397.986 78.1054C398.153 77.9136 399.127 75.2507 400.574 75.5054Z" fill="#1B427D"/>
<path opacity="0.13" d="M165.203 60.4078C165.203 60.4078 164.796 61.5032 164.747 61.5032C164.698 61.5032 162.893 62.6241 162.992 64.0387C163.089 65.4533 164.601 66.6506 164.601 66.6506L165.203 67.8989C165.203 67.8989 163.399 67.8615 162.634 66.9683C161.87 66.0767 161.106 65.287 160.765 65.0952C160.423 64.9034 159.09 64.5857 159.09 64.5857L155.742 65.5417L154.636 66.7391C154.636 66.7391 153.611 66.255 153.238 65.9239L150.847 65.9613L151.726 67.0193C151.726 67.0193 150.49 66.4454 150.198 65.9494C150.198 65.9494 144.703 65.6182 144.052 64.3055C143.402 62.9928 149.108 62.777 149.937 62.7515C149.937 62.7515 150.669 61.2994 152.409 60.7255C152.409 60.7255 153.368 61.3759 153.953 62.4713L152.441 62.738C152.441 62.738 157.611 63.4004 158.407 63.4393C159.203 63.4783 160.569 63.1981 160.846 63.0062C161.122 62.8159 162.765 60.153 165.203 60.4078Z" fill="#1B427D"/>
<path opacity="0.13" d="M206.703 62.7656C206.703 62.7656 206.425 63.5163 206.39 63.5163C206.357 63.5163 205.119 64.2851 205.186 65.2546C205.253 66.2242 206.29 67.0454 206.29 67.0454L206.703 67.901C206.703 67.901 205.466 67.874 204.941 67.2641C204.417 66.6527 203.895 66.1118 203.659 65.9799C203.426 65.8495 202.511 65.6308 202.511 65.6308L200.216 66.2856L199.458 67.1068C199.458 67.1068 198.756 66.7756 198.5 66.5478L196.862 66.5733L197.464 67.2986C197.464 67.2986 196.617 66.906 196.417 66.5643C196.417 66.5643 192.649 66.3366 192.204 65.4374C191.76 64.5383 195.671 64.39 196.239 64.372C196.239 64.372 196.741 63.377 197.934 62.9829C197.934 62.9829 198.592 63.4279 198.992 64.1787L197.957 64.3615C197.957 64.3615 201.501 64.8155 202.047 64.841C202.594 64.868 203.529 64.6747 203.718 64.5443C203.906 64.4169 205.032 62.5917 206.703 62.7656Z" fill="#1B427D"/>
<path opacity="0.13" d="M216.209 24.2695C216.209 24.2695 215.931 25.0202 215.898 25.0202C215.865 25.0202 214.627 25.789 214.694 26.7585C214.761 27.7281 215.798 28.5493 215.798 28.5493L216.211 29.4049C216.211 29.4049 214.974 29.3794 214.451 28.768C213.927 28.1566 213.402 27.6157 213.169 27.4838C212.935 27.3519 212.02 27.1347 212.02 27.1347L209.725 27.7895L208.967 28.6107C208.967 28.6107 208.265 28.278 208.009 28.0518L206.371 28.0787L206.974 28.804C206.974 28.804 206.127 28.4114 205.927 28.0697C205.927 28.0697 202.16 27.842 201.714 26.9429C201.267 26.0437 205.18 25.8954 205.749 25.8774C205.749 25.8774 206.251 24.8824 207.442 24.4883C207.442 24.4883 208.1 24.9333 208.502 25.6841L207.466 25.8669C207.466 25.8669 211.01 26.321 211.556 26.3464C212.103 26.3719 213.039 26.1801 213.228 26.0497C213.412 25.9209 214.538 24.0956 216.209 24.2695Z" fill="#1B427D"/>
<path opacity="0.39" d="M293.777 79.2652C293.777 79.2652 293.247 80.9885 293.183 80.9885C293.12 80.9885 290.761 82.7523 290.888 84.9776C291.015 87.2029 292.991 89.0865 292.991 89.0865L293.777 91.0511C293.777 91.0511 291.418 90.9912 290.421 89.5885C289.422 88.1859 288.424 86.9436 287.978 86.6424C287.531 86.3412 285.789 85.8407 285.789 85.8407L281.412 87.3438L279.968 89.2274C279.968 89.2274 278.629 88.4662 278.141 87.9447L275.018 88.0046L276.165 89.668C276.165 89.668 274.551 88.7658 274.168 87.9851C274.168 87.9851 266.986 87.4636 266.137 85.4001C265.287 83.3352 272.743 82.995 273.828 82.9546C273.828 82.9546 274.785 80.6693 277.058 79.7672C277.058 79.7672 278.311 80.7892 279.077 82.5125L277.101 82.9336C277.101 82.9336 283.857 83.9751 284.897 84.0365C285.938 84.0964 287.723 83.6559 288.084 83.3547C288.445 83.0535 290.591 78.8651 293.777 79.2652Z" fill="#1B427D"/>
<path opacity="0.39" d="M250.723 13.1363C250.723 13.1363 250.192 14.8596 250.127 14.8596C250.062 14.8596 247.704 16.6233 247.833 18.8472C247.96 21.0725 249.936 22.9561 249.936 22.9561L250.723 24.9207C250.723 24.9207 248.364 24.8607 247.366 23.4581C246.367 22.0555 245.369 20.8117 244.923 20.512C244.476 20.2108 242.734 19.7103 242.734 19.7103L238.357 21.2133L236.913 23.097C236.913 23.097 235.574 22.3357 235.087 21.8142L231.964 21.8742L233.11 23.5375C233.11 23.5375 231.496 22.6354 231.114 21.8547C231.114 21.8547 223.932 21.3332 223.082 19.2698C222.232 17.2048 229.69 16.8646 230.774 16.8242C230.774 16.8242 231.73 14.5389 234.003 13.6368C234.003 13.6368 235.257 14.6588 236.022 16.3821L234.046 16.8032C234.046 16.8032 240.802 17.8462 241.844 17.9061C242.885 17.966 244.67 17.5255 245.031 17.2243C245.388 16.9246 247.534 12.7362 250.723 13.1363Z" fill="#1B427D"/>
<path opacity="0.39" d="M262.668 64.1714C262.668 64.1714 262.137 65.8947 262.074 65.8947C262.01 65.8947 259.651 67.6585 259.778 69.8823C259.906 72.1076 261.882 73.9913 261.882 73.9913L262.668 75.9558C262.668 75.9558 260.311 75.8959 259.311 74.4933C258.312 73.0907 257.315 71.8484 256.868 71.5472C256.422 71.246 254.679 70.7455 254.679 70.7455L250.303 72.2485L248.857 74.1321C248.857 74.1321 247.518 73.3709 247.03 72.8494L243.907 72.9093L245.054 74.5727C245.054 74.5727 243.44 73.6706 243.057 72.8899C243.057 72.8899 235.876 72.3684 235.026 70.3049C234.176 68.2399 241.632 67.8998 242.716 67.8593C242.716 67.8593 243.672 65.5741 245.945 64.672C245.945 64.672 247.199 65.6939 247.964 67.4173L245.988 67.8383C245.988 67.8383 252.744 68.8798 253.785 68.9412C254.825 69.0012 256.611 68.5606 256.971 68.2594C257.335 67.9597 259.48 63.7713 262.668 64.1714Z" fill="#1B427D"/>
<path opacity="0.39" d="M322.633 71.1873C322.633 71.1873 322.102 72.9106 322.037 72.9106C321.974 72.9106 319.615 74.6743 319.742 76.8981C319.869 79.1235 321.845 81.0071 321.845 81.0071L322.631 82.9717C322.631 82.9717 320.272 82.9117 319.275 81.5091C318.277 80.1065 317.278 78.8627 316.831 78.563C316.385 78.2618 314.642 77.7613 314.642 77.7613L310.266 79.2643L308.822 81.148C308.822 81.148 307.483 80.3867 306.995 79.8652L303.872 79.9251L305.019 81.5885C305.019 81.5885 303.403 80.6864 303.022 79.9042C303.022 79.9042 295.84 79.3827 294.992 77.3192C294.142 75.2542 301.599 74.9141 302.684 74.8736C302.684 74.8736 303.64 72.5884 305.913 71.6878C305.913 71.6878 307.167 72.7098 307.932 74.4331L305.956 74.8542C305.956 74.8542 312.712 75.8956 313.754 75.9571C314.795 76.017 316.58 75.5764 316.941 75.2752C317.3 74.9755 319.446 70.7857 322.633 71.1873Z" fill="#1B427D"/>
</g>
<defs>
<clipPath id="clip0_806_2">
<rect width="440" height="956" fill="white"/>
</clipPath>
</defs>
</svg>
