<svg width="440" height="956" viewBox="0 0 440 956" fill="none" xmlns="http://www.w3.org/2000/svg">
<g clip-path="url(#clip0_808_1662)">
<rect width="440" height="956" fill="white"/>
<g filter="url(#filter0_f_808_1662)">
<ellipse cx="-1.5" cy="516.5" rx="150.5" ry="116.5" fill="#2D9DF9" fill-opacity="0.81"/>
<path d="M-1.5 399.5C81.7683 399.5 149.5 451.771 149.5 516.5C149.5 581.229 81.7683 633.5 -1.5 633.5C-84.7683 633.5 -152.5 581.229 -152.5 516.5C-152.5 451.771 -84.7683 399.5 -1.5 399.5Z" stroke="black"/>
</g>
<path d="M241.678 949.913C260.941 947.523 294.284 932.33 294.284 932.33C281.884 920.377 231.874 939.915 231.874 939.915C220.482 932.901 201.761 946.872 200.642 951.213C200.287 952.587 199.538 953.86 198.583 954.901C197.75 955.807 196.532 956.091 195.346 955.895C193.964 955.668 194.517 955.001 195.406 954.527C196.104 954.155 197.085 953.321 196.935 952.445C196.764 951.44 195.34 951.073 194.531 950.856C192.979 950.438 191.472 950.022 189.888 949.709C187.349 949.207 184.777 948.899 182.284 948.182C182.731 948.074 183.124 947.913 183.332 947.632C184.103 946.59 181.731 945.854 181.15 945.613C180.048 945.155 178.718 944.826 177.708 944.19C175.718 942.937 173.986 941.249 171.658 940.628C169.31 940.002 166.959 940.193 164.758 941.107C163.648 941.569 162.56 942.073 161.355 942.232C158.412 942.622 148.21 938.917 148.21 938.917C131.301 930.702 126.965 917.161 126.306 907.248C125.911 901.306 126.759 895.925 127.598 892.296C122.687 891.669 118.203 892.43 114.658 893.539C117.382 885.904 123.521 876.343 125.352 871.886C125.873 870.618 125.954 869.908 125.755 869.504C127.78 867.551 130.566 865.422 134.873 862.077C140.29 857.87 140.962 859.208 139.163 858.236C143.321 856.569 143.411 853.631 146.655 850.827C148.977 848.821 152.648 847.302 155.551 846.45C158.434 845.604 161.378 844.867 164.308 844.074C162.02 839.49 157.462 837.379 152.587 838.36C148.599 839.161 144.818 842.08 141.674 845.364C136.116 843.762 132.082 844.489 129.657 845.401C129.639 845.108 129.592 844.809 129.501 844.506C128.725 841.909 118.268 851.732 113.212 856.681C112.202 856.612 110.45 857.545 108.167 860.084C105.585 862.954 103.42 866.685 101.98 869.484C101.745 869.374 101.458 869.294 101.093 869.265C98.5948 869.066 93.4417 889.559 92.1449 898.278C96.7184 905.446 109.832 928.122 108.667 950.719C108.681 950.709 108.694 950.701 108.709 950.691C108.709 950.691 108.959 950.921 109.457 951.143C110.9 954.18 113.568 959.085 116.92 962.02C122.039 966.5 130.95 972.759 134.549 975.54C138.109 978.29 139.528 982.824 142.059 979.234C145.579 982.896 155.17 992.187 157.843 987.762C188.083 1002.44 187.774 985.321 187.774 985.321C178.896 990.5 164.919 985.859 159.08 983.511C159.762 979.452 157.555 980.377 152.686 979.272C150.205 978.709 147.381 977.157 145.071 976.051C146.353 974.781 146.312 973.971 141.443 971.928C133.703 968.682 125.871 963.079 122.352 957.908C120.291 954.881 118.549 951.764 116.923 949.606C117.949 948.932 119.072 948.045 120.291 946.887C120.291 946.887 120.544 946.915 121 946.936C107.516 926.774 105.785 906.726 105.883 897.069C102.021 896.161 99.4397 896.349 97.7501 896.92C98.1355 891.181 102.506 885.548 103.759 881.369C105.094 876.914 107.325 870.775 105.645 870.935C106.7 869.59 108.368 868.27 112.217 864.956C119.416 858.756 112.045 862.792 113.561 859.761C117.782 856.725 124.089 855.506 132.377 853.915C133.69 853.664 134.715 853.403 135.513 853.144C135.107 853.752 134.748 854.311 134.444 854.795C130.49 854.499 123.979 862.989 120.591 867.852C120.342 867.541 120.127 867.147 119.968 866.635C118.807 862.909 110.731 885.244 106.976 895.926C106.731 904.982 108.005 925.96 122.312 946.966C123.498 946.966 125.137 946.897 127.056 946.631C132.967 948.481 147.692 956.407 153.509 956.629C159.324 956.851 162.023 960.773 165.199 964.051C168.376 967.329 172.024 968.962 171.395 966.906C170.766 964.848 170.855 964.321 176.259 968.918C181.192 973.113 186.442 971.579 187.22 968.46C187.225 968.473 187.229 968.483 187.229 968.483C193.699 978.671 204.743 978.703 213.11 976.645C219.153 975.16 226.904 976.347 233.168 975.922C239.245 975.511 245.318 974.847 251.291 973.636C260.575 971.755 269.71 968.523 277.533 963.085C286.579 956.795 293.383 947.565 295.704 936.708C296.123 934.745 296.45 932.734 296.289 930.722C289.596 950.508 241.678 949.913 241.678 949.913ZM138.146 849.479C137.802 849.923 137.47 850.362 137.157 850.789C136.809 850.579 136.339 850.391 135.796 850.238C136.603 849.991 137.39 849.735 138.146 849.479Z" fill="#231F20"/>
<path d="M256.282 890.324C262.966 888.567 269.184 886.761 276.116 886.371C283.43 885.959 290.739 886.856 297.952 888C305.455 889.19 319.347 892.704 318.867 892.382C317.898 891.732 298.93 886.117 293.488 885.457C288.855 884.896 284.215 884.318 279.548 884.137C272.649 883.869 267.947 884.37 261.363 886.386C257.705 887.505 251.712 889.144 248.052 890.255C241 892.395 234.16 894.823 227.112 897.032C221.854 898.68 216.577 900.261 211.293 901.823C201.884 904.604 192.453 907.31 183.01 909.975C183.95 908.514 184.775 906.532 184.894 903.961C183.568 901.821 181.808 900.471 180.159 899.609C187.968 893.276 204.706 881.735 212.497 876.734C213.458 876.117 214.402 875.519 215.338 874.93C220.567 874.442 226.225 873.248 231.941 870.863C232.005 870.841 232.069 870.816 232.133 870.793C232.114 870.801 232.096 870.809 232.077 870.816C232.094 870.81 232.113 870.801 232.133 870.793C232.923 870.508 233.706 870.199 234.48 869.872C237.068 868.782 239.576 867.486 242.129 866.302C243.076 865.863 243.969 865.416 244.842 864.96C247.358 865.377 249.838 866.028 252.284 866.764C259.683 868.992 267.286 870.729 274.905 871.874C285.196 873.418 295.204 875.908 305.319 878.299C313.749 880.292 322.153 882.403 330.582 884.401C331.919 884.717 325.794 881.517 320.936 880.082C317.734 879.135 314.511 878.259 311.274 877.436C299.834 874.53 288.214 872.117 276.611 870.068C272.633 869.365 257.81 866.583 254.149 865.226C252.089 864.462 249.852 863.88 247.674 863.353C248.701 862.725 249.717 862.067 250.744 861.319C253.226 859.511 255.494 857.317 257.24 854.784C258.306 853.236 259.233 851.531 259.768 849.721C259.893 849.302 259.924 848.109 260.19 847.784C256.369 852.451 220.077 855.55 220.077 855.55C233.725 838.88 268.538 846.482 268.538 846.482C245.585 809.013 208.936 826.465 185.528 837.371C162.12 848.276 164.871 853.184 164.795 856.206C164.72 859.228 160.218 860.854 159.24 857.655C158.262 854.455 154.389 858.137 153.367 861.337C152.345 864.536 150.631 866.285 149.583 862.857C148.706 859.989 134.065 882.539 129.305 889.984C129.177 890.427 129.038 890.943 128.894 891.51C128.676 891.465 128.455 891.42 128.219 891.374C118.501 889.518 106.196 896.522 106.196 896.522C99.0471 893.52 91.8734 898.812 91.8734 898.812C88.2899 898.233 85.2454 898.9 82.8951 899.872C84.6696 891.409 91.5035 879.694 93.7096 874.659C94.2361 873.457 94.4436 872.693 94.4264 872.221C98.9695 866.045 99.6649 861.974 98.3991 861.386C98.3003 861.34 98.2045 861.289 98.1104 861.236C100.168 855.71 101.837 842.508 102.342 840.767C102.592 839.91 102.272 839.591 101.717 839.4C102.756 835.914 102.572 830.184 102.675 827.961C102.839 824.412 100.535 825.866 99.5481 830.667C99.1218 832.734 98.5766 835.026 98.1968 837.01C98.1807 836.952 98.1576 836.905 98.1431 836.843C97.3234 833.345 94.6837 845.149 94.324 850.508C94.0637 854.36 94.6287 858.788 94.9669 860.98C94.4914 861.365 93.9515 861.983 93.3153 862.939C91.6634 865.421 90.0803 868.86 89.1384 871.054C89.1078 870.993 89.0766 870.933 89.0503 870.864C87.7738 867.506 85.541 878.184 81.6602 887.869C79.0392 894.41 78.3218 899.903 78.1303 902.786C78.1305 902.787 78.1308 902.788 78.1312 902.789C77.8303 903.055 77.6599 903.227 77.6599 903.227C76.6482 903.122 75.7146 903.086 74.8375 903.099C74.398 898.07 76.9129 892.328 77.8087 888.046C78.7932 883.339 78.3064 883.353 76.7957 882.818C77.2643 881.016 77.9172 879.069 78.7406 878.014C80.0347 876.359 81.7744 875.341 81.7747 874.14C81.7711 874.128 81.7689 874.119 81.7656 874.107C81.7589 873.924 81.7071 873.735 81.6092 873.54C74.6829 849.024 85.1239 846.574 85.1239 846.574C72.8824 846.33 75.0679 864.74 76.7489 871.641C76.6414 871.875 76.5363 872.145 76.4334 872.473C76.0855 873.58 75.2846 876.19 74.6404 878.913C74.2415 877.151 73.8528 876.357 72.2285 881.225C70.073 887.688 70.9363 898.489 71.4982 903.458C63.4156 905.189 63.0035 912.557 63.0035 912.557C57.497 912.459 54.5639 917.314 54.5639 917.314C43.4937 913.674 38.5486 922.607 38.5486 922.607C31.6129 918.315 26.4988 924.345 26.4988 924.345C26.2877 924.232 26.0782 924.129 25.8705 924.035C25.8697 924.035 25.8687 924.035 25.8687 924.035C19.5168 921.161 15.0874 927.015 15.0874 927.015C11.7373 924.627 7.48357 928.358 7.48357 928.358C7.19789 928.266 6.91826 928.194 6.64625 928.142C6.63753 928.125 6.62832 928.106 6.61984 928.089C6.39818 928.063 6.18032 928.052 5.96409 928.049C3.73559 927.841 2.05575 928.817 1.07208 929.63C0.828686 929.792 0.688605 929.903 0.688605 929.903C-7.25923 903.315 -24.4693 910.831 -24.4693 910.831C-47.5245 920.731 -28.6022 940.38 -26.6137 942.786C-24.6315 945.185 -25.6385 947.26 -25.6453 947.271C-27.5147 951.106 -23.2611 964.224 -19.8964 966.573C-19.8964 966.573 -17.9903 967.903 -18.5542 970.963C-19.1181 974.022 -26.0813 1000.29 -1.07268 997.896C-1.07268 997.896 17.6576 996.215 11.6281 969.137C11.6281 969.137 15.6478 969.83 18.2813 967.403L18.7473 967.426C22.4326 969.109 26.0011 964.992 26.0011 964.992C31.5688 968.118 37.3495 961.81 37.3495 961.81C43.601 964.583 48.5993 957.362 48.5993 957.362C57.6587 962.013 63.5918 954.318 63.5918 954.318C67.8464 956.215 74.0437 955.275 74.0437 955.275C75.128 956.052 76.3026 956.588 77.5152 956.94C77.8456 957.158 78.2021 957.366 78.6125 957.543C80.0739 960.202 81.7948 963.393 83.6096 966.888C85.6733 970.866 87.1247 975.062 88.8436 979.186C89.0881 979.774 89.9759 981.882 90.3447 982.037C90.8869 982.266 90.8586 981.735 90.9849 981.34C91.2446 980.526 91.658 981.338 91.8315 981.73C92.1738 982.507 92.4229 983.297 92.7306 984.083C93.6282 986.374 94.5182 988.62 96.0891 990.552C96.4827 991.036 97.0546 991.676 97.7325 991.699C100.319 997.809 105.491 1008.88 108.657 1007.94C113.007 1006.65 112.868 1002.91 112.868 1002.91C112.868 1002.91 109.168 1007.66 105.673 1002.49C103.547 999.347 101.035 993.394 99.0581 989.943C99.4871 987.961 99.0426 985.803 98.3996 983.917C97.8255 982.235 96.6655 981.116 95.6593 979.719C95.5943 979.629 94.7345 978.4 94.8096 978.408C95.1208 978.442 95.5317 978.827 95.6378 978.311C95.7352 977.838 95.0937 976.976 94.8845 976.538C94.6792 976.107 94.4196 975.693 94.1884 975.276C92.7547 972.691 91.3019 970.117 89.8372 967.549C88.9226 965.946 88.0036 964.345 87.0766 962.75C86.6037 961.936 86.1292 961.122 85.6526 960.31C85.5207 960.084 84.4447 957.985 84.2949 958.01C84.3049 958.008 84.3133 958.007 84.3233 958.006C90.0825 965.254 111.408 991.894 110.976 988.36C110.903 987.762 110.975 987.261 111.129 986.82C112.296 988.218 113.733 989.954 114.91 991.418C116.211 993.036 118.624 994.747 120.529 995.57C123.793 1000.72 130.002 1010.05 133.656 1012.68C138.78 1016.36 146.342 1022.29 144.399 1018.39C142.455 1014.49 137.216 1012.63 131.6 1005.83C128.775 1002.41 125.693 997.684 123.201 994.471C122.837 991.968 121.601 987.3 115.037 983.441C115.398 983.114 115.569 982.758 115.367 982.289C114.509 980.294 109.65 978.299 103.278 972.99C97.3624 968.061 93.5656 964.418 89.0023 956.565C89.6608 956.287 90.3553 955.96 91.0718 955.6C91.7628 955.329 92.1607 955.14 92.1607 955.14C93.3338 955.806 94.664 956.062 96.0466 956.048C98.4002 959.886 102.37 965.953 104.883 967.612C108.641 970.092 123.777 984.209 124.537 982.727C124.75 982.311 124.9 981.737 125.063 981.144C128.793 984.692 138.662 993.731 140.743 992.13C142.022 993.596 143.938 995.25 146.619 996.219C152.239 998.25 162.964 1004.72 169.35 1000.27C169.35 1000.27 155.313 996.664 149.121 992.956C146.772 991.55 144.632 990.228 142.906 989.292C143.487 988.133 142.891 987.212 139.029 985.791C134.607 984.165 129.408 979.713 126.279 978.703C126.678 978.395 127.204 978.263 127.94 978.445C130.643 979.111 124.844 976.253 122.108 974.781C119.371 973.309 109.949 966.193 107.072 963.324C104.935 961.192 104.954 957.568 103.26 954.157C106.182 952.822 108.346 951.272 108.346 951.272C110.411 950.713 119.052 946.702 119.052 946.702C123.119 947.044 124.687 946.874 124.687 946.874C124.687 946.874 129.939 941.068 138.091 940.16C142.339 939.687 144.684 938.016 145.965 936.52C145.976 936.526 145.985 936.533 145.996 936.539C155.627 925.638 158.991 926.119 162.446 924.547C165.956 922.95 174.257 920.674 173.074 917.623C173.074 917.623 178.616 917.767 179.956 913.157C193.93 909.351 207.871 905.394 221.719 901.156C226.115 899.81 230.503 898.439 234.854 896.953C241.913 894.54 249.036 892.229 256.282 890.324ZM170.526 913.865C168.886 914.366 167.319 913.997 167.026 913.04C166.734 912.084 167.827 910.901 169.467 910.4C171.108 909.898 172.676 910.267 172.968 911.223C173.261 912.181 172.167 913.363 170.526 913.865ZM168 905.602C166.36 906.103 164.793 905.735 164.5 904.778C164.207 903.822 165.301 902.64 166.941 902.138C168.582 901.637 170.15 902.005 170.442 902.962C170.735 903.918 169.641 905.1 168 905.602ZM178.224 898.776C176.557 898.205 175.319 898.124 175.319 898.124C171.895 894.734 167.117 897.518 167.117 897.518C166.662 894.28 158.286 896.273 154.435 896.559C151.92 896.746 149.884 897.704 144.789 896.896C148.659 894.232 152.289 891.175 155.943 888.228C158.199 886.407 172.027 876.273 171.142 874.917C170.738 874.297 168.216 875.184 167.578 875.177C169.47 873.013 172.122 871.271 174.848 870.366C175.877 870.024 178.931 869.313 178.931 867.894C178.93 866.788 177.315 866.354 176.987 865.377C176.839 864.938 178.275 865.013 178.427 865.05C179.958 865.423 180.836 867.419 181.987 868.356C184.256 870.202 187.392 871.357 190.114 872.329C190.115 872.329 199.435 875.656 211.995 875.153C210.228 876.284 208.468 877.428 206.724 878.6C201.365 882.196 196.04 885.842 190.798 889.607C186.684 892.563 182.582 895.537 178.515 898.558C178.486 898.579 178.382 898.658 178.224 898.776Z" fill="#231F20"/>
<path d="M459.115 87.0469C458.993 83.3869 459.562 76.53 457.705 73.2231C456.795 71.6017 455.583 70.916 454.255 70.8316C452.62 61.3246 449.287 46.9497 444.09 46.9973C438.48 39.4623 426.996 25.2784 421.336 27.1284C417.408 24.7118 411.484 23.3314 403.124 20.2154C399.398 18.8268 396.827 18.525 395.132 18.9776C386.62 15.2678 376.038 16.5067 370.412 16.0612C367.738 15.8489 365.277 15.8562 363.475 16.1447C356.146 9.44355 339.418 10.1432 296.34 6.34571C287.423 5.55998 279.854 5.38342 273.458 5.63327C272.926 4.382 271.838 3.38479 270.418 3.0307C268.024 2.43375 265.599 3.88227 264.987 6.27108C243.369 8.8014 240.182 16.9954 244.613 18.4912C248.251 19.7203 258.645 25.3189 269.735 29.9653C259.609 34.4101 238.055 45.0422 224.496 60.1723C206.285 80.4898 213.415 97.0266 218.518 102.526C218.61 102.624 218.708 102.724 218.805 102.822C218.815 102.809 218.825 102.795 218.835 102.781C213.907 96.3763 208.667 80.6344 225.764 61.5579C239.802 45.8953 262.403 35.0546 272.026 30.9054C274.664 31.967 277.317 32.9546 279.906 33.7985C271.507 41.7705 249.59 64.1051 240.145 88.3512C228.337 118.668 243.229 134.135 251.232 138.131C251.374 138.202 251.527 138.273 251.675 138.343C251.681 138.323 251.686 138.303 251.692 138.282C243.505 133.203 231.055 117.831 242.141 89.3657C251.705 64.8093 274.063 42.2158 282.216 34.5144C283.756 34.9683 285.261 35.3615 286.717 35.6794C283.558 36.2171 281.198 36.8073 280.515 37.427C277.769 39.9218 278.39 54.975 281.805 60.3278C283.279 62.6402 286.518 65.4615 289.694 67.904C288.295 70.1225 287.284 71.7347 287.284 71.7347C288.19 70.536 289.11 69.3486 290.025 68.1574C293.15 70.5394 296.152 72.5231 297.285 73.2564C298.371 74.084 299.442 74.865 300.425 75.5603C298.169 81.1954 296.968 85.5316 296.968 85.5316C296.968 85.5316 298.861 81.2893 301.547 76.3446C303.659 77.8064 305.132 78.7314 305.02 78.6599C304.913 78.5922 303.612 77.4173 301.851 75.7859C303.177 73.3734 304.679 70.8323 306.235 68.5507C306.575 75.2583 307.432 81.556 308.145 82.8141C309.793 85.7256 317.18 91.694 317.18 91.694C317.18 91.694 310.764 84.3416 309.614 79.9291C309.029 77.6851 308.923 70.8075 309.224 64.639C311.057 62.5594 312.856 61.172 314.428 61.1222C314.54 61.1187 314.664 61.1138 314.796 61.1065C312.858 62.1017 311.514 63.0287 311.135 63.8028C309.103 67.9497 312.256 69.8331 315.465 74.5096C318.674 79.1861 330.148 96.0605 334.921 99.2422C339.343 102.189 344.457 104.137 343.413 103.428C340.875 101.705 335.983 98.1226 332.272 93.8308C327.033 87.7729 314.051 68.6564 314.078 66.0371C314.086 65.2482 318.631 64.0662 324.976 62.7983C323.477 67.6776 324.356 79.2698 327.265 83.8296C330.679 89.1824 343.538 97.265 343.215 97.0597C342.891 96.8543 331.502 86.3865 329.618 83.9167C327.734 81.4459 327.082 72.5296 326.874 69.353C326.667 66.1756 325.93 64.1156 328.881 64.3126C331.25 64.471 351.171 62.7143 359.279 62.2958C358.905 63.2008 358.784 64.053 359.029 64.8041C359.503 66.2596 360.404 67.6876 361.502 68.8615C359.3 73.4427 357.585 81.1717 363.302 90.6888C363.302 90.6888 361.786 78.5399 366.292 71.6477C366.739 71.6934 367.173 71.6658 367.584 71.5556C367.18 73.2724 367.022 75.1588 367.3 77.1589C368.416 85.2122 376.951 94.093 376.951 94.093C376.951 94.093 370.357 83.4457 370.56 77.1193C370.671 73.6499 372.709 70.1458 374.527 67.6818C374.864 67.7736 375.186 67.8238 375.49 67.8264C375.299 68.9793 375.314 70.0806 375.661 71.0227C372.892 73.8048 371.177 77.0853 373.562 80.119C379.066 87.1185 391.215 87.5215 391.215 87.5215C391.215 87.5215 383.72 82.4895 381.801 78.1525C380.387 74.9579 386.388 72.313 389.615 69.5332C390.317 69.4513 391.03 69.325 391.749 69.149C391.761 69.1707 391.771 69.1936 391.782 69.2161C390.893 70.2507 390.081 71.8085 389.654 74.2331C388.447 81.0787 389.761 87.3392 397.093 90.0153C397.093 90.0153 389.715 78.8337 394.759 72.8825C395.715 73.5725 396.841 74.0687 398.151 74.2448C401.415 74.6847 403.075 74.7372 406.181 73.1204C406.983 72.7022 407.968 72.0782 408.841 71.3173C408.993 71.3799 409.148 71.4459 409.296 71.5085C409.567 72.7049 410.043 73.8818 410.77 75.0007C408.274 74.8022 406.058 74.9157 405.152 75.7412C404.751 76.1066 404.467 76.4517 404.266 76.7841C402.558 77.4941 400.449 79.3776 399.51 84.3367C397.926 92.6946 397.285 104.289 400.14 107.877C400.14 107.877 400.95 88.8315 407.235 82.0387C409.084 83.8079 408.533 85.0473 412.718 84.5031C414.102 84.3238 415.689 84.1492 417.222 83.9934C417.655 85.3601 418.426 86.7599 419.617 88.1807C416.711 88.3333 414.644 89.356 415.197 89.8978C412.245 90.149 407.773 90.9113 406.544 93.2181C404.664 96.7504 405.017 97.3388 405.549 100.722C406.079 104.106 409.456 108.11 411.505 108.916C413.554 109.721 406.625 102.424 408.643 97.8339C410.06 94.6155 411.946 94.2046 414.518 94.1625C414.589 94.3186 415.413 94.3474 417.105 94.975C418.881 95.6339 422.125 95.3768 424.562 95.039C424.617 95.121 424.671 95.203 424.719 95.2849C425.247 96.1859 425.313 99.3162 425.351 103.077C425.398 107.804 425.399 113.529 426.218 117.087C425.191 123.682 423.425 126.804 424.068 129.06C423.286 129.308 422.412 129.627 421.406 130.058C414.773 132.905 401.154 138.513 395.79 142.427C390.424 146.341 372.926 154.732 380.473 157.364C388.02 159.996 392.031 157.995 394.027 162.994C396.025 167.994 405.649 165.643 410.569 160.367C415.49 155.091 415.49 155.091 415.49 155.091L409.924 162.958C409.924 162.958 417.122 158.5 423.423 153.318C429.723 148.137 436.664 145.366 439.721 141.127C441.016 139.331 442.643 138.116 443.9 137.259C445.469 136.917 446.675 136.1 448.649 133.392C451.423 129.587 462.483 106.314 458.504 99.3563C459.329 95.3397 459.248 91.0289 459.115 87.0469ZM291.315 65.3396C289.519 62.6653 288.885 54.0638 288.683 50.9525C288.475 47.7749 287.738 45.715 290.689 45.9118C292.764 46.0516 308.285 44.7223 317.563 44.1078C319.769 45.1617 322.17 46.3482 324.913 47.6895C318.075 47.7857 304.806 47.9882 303.496 48.4832C302.4 48.8966 301.508 49.7092 300.754 50.5837C299.211 52.3759 298.247 54.5532 296.956 56.515C295.684 58.4473 293.363 62.0978 291.315 65.3396ZM330.051 50.1524C332.613 51.3447 334.781 52.2841 336.719 53.0619C336.434 53.1479 336.148 53.2347 335.852 53.3248C326.898 52.3443 314.1 50.9521 309.85 50.5458C315.037 50.417 323.651 50.2622 330.051 50.1524ZM281.418 45.8507C281.21 42.6731 280.474 40.6132 283.424 40.81C285.083 40.9211 295.343 40.0939 304.132 39.4424C296.634 40.2493 289.098 41.3338 287.783 42.5278C285.037 45.0226 285.658 60.0758 289.072 65.4287C289.1 65.4725 289.135 65.5186 289.163 65.5632C286.885 63.3659 284.862 61.3345 284.161 60.414C282.278 57.9436 281.625 49.0271 281.418 45.8507ZM304.109 67.4254C302.825 69.926 301.703 72.4364 300.751 74.7593C297.473 71.7011 293.269 67.6825 291.748 65.9088C291.975 65.6161 292.197 65.3205 292.423 65.0283C293.782 63.2756 295.148 61.5282 296.539 59.8014C298.096 57.8667 299.619 55.8884 301.234 54.0194C302.632 52.3988 303.256 50.8275 305.66 50.6821C306.145 50.6528 307.159 50.6179 308.523 50.5811C306.616 51.3962 306.022 57.3808 306.094 64.007C305.455 64.9742 304.789 66.1013 304.109 67.4254ZM312.631 58.3164C312.631 58.3164 311.423 58.3592 309.557 59.9378C309.918 56.1625 310.47 53.4262 311.191 53.5618C312.036 53.7201 320.037 54.5606 329.097 55.4881C328.198 55.7882 327.292 56.0978 326.389 56.4132L312.631 58.3164ZM377.34 67.238C378.025 67.6051 378.664 67.8729 379.252 68.0015C378.42 68.6062 377.577 69.2672 376.782 69.97C376.616 68.9976 376.698 68.0002 377.34 67.238Z" fill="#231F20"/>
</g>
<defs>
<filter id="filter0_f_808_1662" x="-1553" y="-1001" width="3103" height="3035" filterUnits="userSpaceOnUse" color-interpolation-filters="sRGB">
<feFlood flood-opacity="0" result="BackgroundImageFix"/>
<feBlend mode="normal" in="SourceGraphic" in2="BackgroundImageFix" result="shape"/>
<feGaussianBlur stdDeviation="700" result="effect1_foregroundBlur_808_1662"/>
</filter>
<clipPath id="clip0_808_1662">
<rect width="440" height="956" fill="white"/>
</clipPath>
</defs>
</svg>
