<svg width="440" height="956" viewBox="0 0 440 956" fill="none" xmlns="http://www.w3.org/2000/svg">
<g clip-path="url(#clip0_808_80)">
<g filter="url(#filter0_f_808_80)">
<ellipse cx="-1.5" cy="516.5" rx="150.5" ry="116.5" fill="#2D9DF9" fill-opacity="0.81"/>
<path d="M-1.5 399.5C81.7683 399.5 149.5 451.771 149.5 516.5C149.5 581.229 81.7683 633.5 -1.5 633.5C-84.7683 633.5 -152.5 581.229 -152.5 516.5C-152.5 451.771 -84.7683 399.5 -1.5 399.5Z" stroke="black"/>
</g>
<mask id="mask0_808_80" style="mask-type:luminance" maskUnits="userSpaceOnUse" x="-37" y="546" width="821" height="821">
<path d="M783.918 546H-37V1366.92H783.918V546Z" fill="white"/>
</mask>
<g mask="url(#mask0_808_80)">
<path d="M64.8477 908.156C64.8477 908.156 67.2201 910.654 69.9045 909.749C69.9045 909.749 68.4778 901.73 66.9722 897.01C65.465 892.29 64.8477 908.156 64.8477 908.156Z" fill="#4391A7"/>
<path d="M68.7734 888.003C68.7734 888.003 71.4956 890.577 72.0473 889.784C72.6006 888.993 70.8208 879.155 70.0442 878.183C69.2676 877.212 68.7734 888.003 68.7734 888.003Z" fill="#4391A7"/>
<path d="M67.5119 858.371L67.5612 858.45C77.6092 874.103 63.8556 914.688 62.7178 917.929C62.6882 918.058 62.6538 918.132 62.6538 918.132L58.605 918.36C45.6936 869.13 67.5119 858.371 67.5119 858.371Z" fill="#4391A7"/>
<path d="M67.5606 858.445C77.6086 874.099 63.855 914.683 62.7172 917.924C55.6573 885.215 61.5433 867.485 67.5606 858.445Z" fill="#6C9AA7"/>
<path d="M58.7164 916.309L46.4453 927.163C46.4453 927.163 55.7365 927.979 59.2812 923.883C59.2812 923.883 62.2874 930.617 72.1729 933.115L62.289 915.867L58.7164 916.309Z" fill="#4391A7"/>
<path d="M56.8278 905.725C56.8278 905.725 54.2419 908.022 52.454 907.558C50.666 907.091 55.076 893.945 55.076 893.945L56.8278 905.725Z" fill="#4391A7"/>
<path d="M63.6117 865.663C64.8792 865.956 65.6738 867.225 65.38 868.496C65.0861 869.765 63.8169 870.556 62.5478 870.262C61.277 869.968 60.4873 868.701 60.7795 867.432C61.0751 866.161 62.3393 865.368 63.6117 865.663Z" fill="white"/>
<path d="M63.4477 866.573C64.308 866.772 64.8465 867.632 64.6462 868.496C64.4475 869.356 63.5856 869.895 62.7269 869.694C61.8649 869.494 61.3248 868.634 61.5267 867.772C61.7237 866.911 62.5857 866.373 63.4477 866.573Z" fill="#1B2C3E"/>
<path d="M11.0742 904.513C11.0742 904.513 14.0328 908.15 17.7713 907.201C17.7713 907.201 16.6729 896.169 15.1213 889.607C13.5698 883.044 11.0742 904.513 11.0742 904.513Z" fill="#4391A7"/>
<path d="M18.5 877.576C18.5 877.576 21.9249 881.354 22.7556 880.334C23.5897 879.316 22.2023 865.781 21.2501 864.384C20.2945 862.985 18.5 877.576 18.5 877.576Z" fill="#4391A7"/>
<path d="M19.8839 837.227L19.943 837.338C31.9432 859.631 9.04289 913.271 7.15971 917.55C7.10553 917.722 7.05135 917.821 7.05135 917.821L1.53478 917.708C-10.8496 849.55 19.8839 837.227 19.8839 837.227Z" fill="#4391A7"/>
<path d="M19.9458 837.336C31.946 859.629 9.04568 913.269 7.1625 917.548C0.995762 872.422 10.8369 848.977 19.9458 837.336Z" fill="#6C9AA7"/>
<path d="M1.89929 914.928L-15.8867 928.378C-15.8867 928.378 -3.36279 930.457 1.87466 925.267C1.87466 925.267 5.25192 934.719 18.4063 939.142L6.79196 914.703L1.89929 914.928Z" fill="#4391A7"/>
<path d="M0.435168 900.377C0.435168 900.377 -3.31479 903.226 -5.69052 902.407C-8.06954 901.588 -0.710834 884.207 -0.710834 884.207L0.435168 900.377Z" fill="#4391A7"/>
<path d="M13.8395 846.719C15.5306 847.25 16.4747 849.054 15.9427 850.748C15.4108 852.44 13.6064 853.38 11.9153 852.85C10.2209 852.32 9.28179 850.515 9.8121 848.824C10.3457 847.13 12.1452 846.186 13.8395 846.719Z" fill="white"/>
<path d="M13.5158 847.937C14.6634 848.295 15.3021 849.521 14.9409 850.67C14.5797 851.816 13.3565 852.458 12.2105 852.097C11.0596 851.736 10.4193 850.513 10.7805 849.363C11.1417 848.216 12.3665 847.576 13.5158 847.937Z" fill="#1B2C3E"/>
<path d="M171.416 937.102L171.473 937.213C183.285 959.608 159.925 1013.05 158.005 1017.31C157.951 1017.48 157.894 1017.58 157.894 1017.58L152.377 1017.42C140.579 949.163 171.416 937.102 171.416 937.102Z" fill="#4391A7"/>
<path d="M171.477 937.215C183.289 959.609 159.929 1013.05 158.009 1017.32C152.227 972.138 162.27 948.777 171.477 937.215Z" fill="#6C9AA7"/>
<path d="M165.291 946.54C166.977 947.085 167.906 948.897 167.361 950.585C166.815 952.273 165.002 953.199 163.316 952.652C161.626 952.107 160.702 950.296 161.246 948.608C161.794 946.921 163.602 945.993 165.291 946.54Z" fill="white"/>
<path d="M164.954 947.755C166.098 948.123 166.727 949.354 166.356 950.5C165.985 951.643 164.757 952.275 163.614 951.904C162.467 951.533 161.836 950.303 162.209 949.157C162.577 948.013 163.808 947.384 164.954 947.755Z" fill="#1B2C3E"/>
<path d="M118.353 887.263C118.345 887.277 120.722 891.409 124.576 890.941C124.533 890.944 125.19 879.614 125.147 872.615C124.909 865.542 118.127 887.196 118.353 887.263Z" fill="#4391A7"/>
<path d="M131.287 861.139C131.277 861.15 133.682 865.716 134.744 864.884C135.697 864.068 137.998 850.327 137.618 848.661C137.03 846.963 131.18 861.103 131.287 861.139Z" fill="#4391A7"/>
<path d="M145.867 821.425C145.87 821.468 145.873 821.512 145.877 821.556C146.663 846.184 113.923 894.531 112.666 900.392C112.592 900.567 112.526 900.667 112.526 900.667C110.695 900.46 108.865 900.258 107.032 900.062C106.052 823.63 148.205 820.512 145.867 821.425Z" fill="#4391A7"/>
<path d="M145.878 821.555C146.664 846.182 113.924 894.529 112.667 900.391C112.401 851.763 133.323 829.158 145.878 821.555Z" fill="#6C9AA7"/>
<path d="M107.727 897.137C101.245 901.355 94.8404 905.893 88.5391 910.751C88.5473 910.777 100.925 913.351 106.594 908.145C106.552 908.15 109.216 918.463 122.276 923.285C118.695 914.957 115.468 906.311 112.635 897.375C110.999 897.289 109.362 897.211 107.727 897.137Z" fill="#4391A7"/>
<path d="M108.523 881.429C108.522 881.416 104.291 883.975 102.069 882.801C99.6836 881.486 110.677 863.794 110.825 863.938C109.889 869.778 109.122 875.61 108.523 881.429Z" fill="#4391A7"/>
<path d="M136.49 828.776C137.893 829.865 138.124 831.97 137.017 833.497C135.911 835.019 133.865 835.418 132.437 834.364C131.003 833.311 130.754 831.175 131.885 829.614C133.02 828.052 135.087 827.683 136.49 828.776Z" fill="white"/>
<path d="M135.728 829.893C136.685 830.626 136.843 832.057 136.089 833.098C135.337 834.134 133.946 834.407 132.981 833.688C132.009 832.968 131.838 831.522 132.605 830.466C133.37 829.411 134.772 829.158 135.728 829.893Z" fill="#1B2C3E"/>
<path d="M112.824 951.668C112.824 951.668 118.848 960.217 96.376 992.171C96.2364 992.363 96.0969 992.569 95.9573 992.762L92.6113 992.634C92.6113 992.634 90.1879 953.597 112.689 951.681C112.74 951.683 112.773 951.666 112.824 951.668Z" fill="#4391A7"/>
<path d="M112.828 951.668C112.828 951.668 118.852 960.217 96.3799 992.171C96.2469 984.625 96.8643 957.784 112.695 951.681C112.744 951.683 112.777 951.666 112.828 951.668Z" fill="#6C9AA7"/>
<path d="M167.84 892.005C167.84 892.005 171.554 898.971 151.737 920.808C151.614 920.939 151.49 921.082 151.369 921.212L148.875 920.803C148.875 920.803 150.704 891.337 167.74 892.003C167.776 892.007 167.8 891.998 167.84 892.005Z" fill="#4391A7"/>
<path d="M167.837 892.007C167.837 892.007 171.551 898.973 151.734 920.809C152.34 915.145 155.309 895.096 167.737 892.005C167.773 892.008 167.798 892 167.837 892.007Z" fill="#6C9AA7"/>
<path d="M149.417 920.055L141.18 926.707C141.18 926.707 146.504 927.505 149.412 923.663C149.412 923.663 151.664 928.587 154.551 929.413L151.479 920.393L149.417 920.055Z" fill="#4391A7"/>
<path d="M149.965 916.73C149.965 916.73 147.46 917.653 145.434 914.926L150.921 910.923L151.326 909.656C151.326 909.656 147.008 909.18 145.484 906.26C145.484 906.26 150.66 902.717 154.359 902.422L150.169 916.686" fill="#4391A7"/>
<path d="M154.645 916.91C154.645 916.91 156.705 919.407 156.851 918.763C156.996 918.12 157.165 913.516 157.184 913.401C157.203 913.286 154.645 916.91 154.645 916.91Z" fill="#4391A7"/>
<path d="M160.728 905.439C160.728 905.439 158.195 908.389 158.521 908.668C158.846 908.946 163.041 914.59 163.224 913.17C163.407 911.748 162.933 906.483 162.143 904.061C161.357 901.641 160.84 905.33 160.84 905.33" fill="#4391A7"/>
<path d="M163.491 895.501C164.462 895.66 165.12 896.577 164.963 897.549C164.802 898.519 163.885 899.176 162.915 899.016C161.942 898.857 161.286 897.943 161.446 896.969C161.605 895.997 162.519 895.339 163.491 895.501Z" fill="white"/>
<path d="M163.408 896.192C164.067 896.302 164.512 896.924 164.402 897.583C164.295 898.241 163.673 898.688 163.014 898.579C162.356 898.474 161.908 897.85 162.016 897.192C162.125 896.532 162.748 896.084 163.408 896.192Z" fill="#1B2C3E"/>
<path d="M182.73 760.132C182.73 760.132 184.429 767.842 159.458 783.526C159.305 783.62 159.148 783.724 158.995 783.815L156.703 782.75C156.703 782.75 166.41 754.868 182.634 760.104C182.669 760.117 182.695 760.116 182.73 760.132Z" fill="#4391A7"/>
<path d="M182.732 760.137C182.732 760.137 184.432 767.847 159.461 783.531C161.571 778.24 169.836 759.734 182.637 760.107C182.672 760.122 182.698 760.12 182.732 760.137Z" fill="#6C9AA7"/>
<path d="M157.432 782.18L147.707 786.365C147.707 786.365 152.619 788.57 156.456 785.654C156.456 785.654 157.297 791.001 159.853 792.576L159.328 783.063L157.432 782.18Z" fill="#4391A7"/>
<path d="M158.851 779.124C158.851 779.124 156.189 779.336 154.973 776.164L161.336 773.788L162.069 772.677C162.069 772.677 158.038 771.055 157.36 767.832C157.36 767.832 163.298 765.814 166.94 766.528L159.059 779.134" fill="#4391A7"/>
<path d="M163.312 780.563C163.312 780.563 164.624 783.523 164.936 782.943C165.25 782.364 166.654 777.975 166.703 777.87C166.752 777.763 163.312 780.563 163.312 780.563Z" fill="#4391A7"/>
<path d="M172.263 771.157C172.263 771.157 169.028 773.316 169.266 773.671C169.506 774.025 172.023 780.593 172.581 779.274C173.141 777.954 174.103 772.756 173.997 770.211C173.891 767.668 172.399 771.081 172.399 771.081" fill="#4391A7"/>
<path d="M177.609 762.329C178.501 762.744 178.886 763.803 178.473 764.696C178.057 765.586 176.997 765.972 176.105 765.557C175.21 765.141 174.826 764.084 175.242 763.189C175.659 762.298 176.718 761.91 177.609 762.329Z" fill="white"/>
<path d="M177.339 762.968C177.943 763.252 178.204 763.971 177.922 764.575C177.641 765.181 176.922 765.442 176.317 765.16C175.712 764.88 175.449 764.158 175.73 763.555C176.012 762.951 176.733 762.687 177.339 762.968Z" fill="#1B2C3E"/>
<path d="M229.566 681.244C229.566 681.244 228.909 685.998 230.526 685.586C232.143 685.173 242.27 673.489 242.16 672.041C242.05 670.595 229.833 680.933 229.833 680.933" fill="#4391A7"/>
<path d="M229.679 607.974C229.679 607.974 221.532 612.269 220.096 612.31C218.657 612.349 221.887 607.043 221.887 607.043L229.791 607.801" fill="#4391A7"/>
<path d="M244.074 610.34C244.074 610.34 241.28 612.376 242.013 612.794C242.746 613.211 251.131 613.426 255.058 611.642L244.074 610.34Z" fill="#4391A7"/>
<path d="M280.081 610.088C263.754 616.925 210.536 606.85 209.72 606.69C209.698 606.694 209.698 606.694 209.698 606.694L209.055 601.682C209.055 601.682 243.94 590.355 261.326 595.515C277.987 600.457 279.943 609.312 280.087 610.052C280.077 610.065 280.081 610.088 280.081 610.088Z" fill="#4391A7"/>
<path d="M280.076 610.088C263.749 616.925 210.531 606.85 209.715 606.69C210.777 606.327 245.013 594.768 263.14 600.14C272.486 602.922 277.46 606.864 280.082 610.052C280.072 610.065 280.076 610.088 280.076 610.088Z" fill="#6C9AA7"/>
<path d="M220.555 599.082L221.062 594.183C221.062 594.183 226.794 593.321 233.847 595.71L220.555 599.082Z" fill="#4391A7"/>
<path d="M212.135 601.827L195.771 589.48C195.771 589.48 191.443 596.214 201.634 603.131C201.634 603.131 194.144 605.83 193.215 617.242L212.713 605.726L212.135 601.827Z" fill="#4391A7"/>
<path d="M270.808 604.622C270.094 605.711 268.631 606.02 267.541 605.305C266.449 604.591 266.145 603.127 266.858 602.038C267.572 600.945 269.035 600.641 270.125 601.355C271.215 602.069 271.524 603.53 270.808 604.622Z" fill="white"/>
<path d="M270.013 604.149C269.528 604.889 268.537 605.096 267.796 604.61C267.056 604.126 266.847 603.133 267.332 602.394C267.814 601.653 268.809 601.445 269.55 601.929C270.292 602.415 270.499 603.409 270.013 604.149Z" fill="#1B2C3E"/>
<path d="M38.9298 708.238C38.9298 708.238 32.2689 714.6 30.8996 715.032C29.5287 715.466 31.1804 709.478 31.1804 709.478L38.9906 708.043" fill="#4391A7"/>
<path d="M53.4118 706.572C53.4118 706.572 51.2824 709.294 52.1017 709.496C52.9209 709.698 61.0415 707.608 64.3317 704.816L53.4118 706.572Z" fill="#4391A7"/>
<path d="M87.9715 696.468C74.1423 707.514 20.1997 712.402 19.3706 712.471C19.3509 712.481 19.3509 712.481 19.3509 712.481L17.3594 707.836C17.3594 707.836 47.8072 687.389 65.9429 687.587C83.3201 687.778 87.6267 695.757 87.9665 696.43C87.9616 696.447 87.9715 696.468 87.9715 696.468Z" fill="#4391A7"/>
<path d="M87.9758 696.467C74.1467 707.513 20.2041 712.401 19.375 712.47C20.2977 711.83 50.0576 691.335 68.9634 691.537C78.7142 691.652 84.5772 694.08 87.9725 696.429C87.966 696.446 87.9758 696.467 87.9758 696.467Z" fill="#6C9AA7"/>
<path d="M27.717 702.181L26.8633 697.33C26.8633 697.33 32.1401 694.931 39.5793 695.296L27.717 702.181Z" fill="#4391A7"/>
<path d="M20.3701 707.131L1.24932 699.738C1.24932 699.738 -1.06895 707.399 10.6275 711.261C10.6275 711.261 4.16194 715.909 6.39483 727.137L21.9939 710.722L20.3701 707.131Z" fill="#4391A7"/>
<path d="M77.5636 693.752C77.1744 694.995 75.8511 695.691 74.6066 695.302C73.3621 694.914 72.6692 693.589 73.0567 692.347C73.4458 691.1 74.7675 690.408 76.0137 690.795C77.2549 691.184 77.951 692.506 77.5636 693.752Z" fill="white"/>
<path d="M76.6697 693.514C76.4053 694.358 75.5089 694.829 74.665 694.565C73.8194 694.301 73.3482 693.404 73.6126 692.56C73.8736 691.716 74.7733 691.243 75.6189 691.506C76.4628 691.771 76.9356 692.67 76.6697 693.514Z" fill="#1B2C3E"/>
<path d="M7.5298 757.226C2.93102 774.318 -37.6322 810.21 -38.2594 810.758C-38.2692 810.778 -38.2692 810.778 -38.2692 810.778L-42.625 808.215C-42.625 808.215 -30.2078 773.703 -15.4772 763.122C-1.36402 752.982 6.83038 756.86 7.50517 757.201C7.50846 757.216 7.5298 757.226 7.5298 757.226Z" fill="#4391A7"/>
<path d="M7.53136 757.229C2.93257 774.321 -37.6306 810.213 -38.2578 810.761C-37.895 809.699 -26.0573 775.559 -10.7078 764.521C-2.7843 758.838 3.37915 757.321 7.50509 757.203C7.51001 757.22 7.53136 757.229 7.53136 757.229Z" fill="#6C9AA7"/>
<path d="M321.886 629.937C321.886 629.937 319.649 632.555 320.827 635.131C320.827 635.131 328.656 632.883 333.194 630.898C337.732 628.91 321.886 629.937 321.886 629.937Z" fill="#4391A7"/>
<path d="M342.341 631.755C342.341 631.755 340.06 634.729 340.907 635.195C341.753 635.663 351.354 632.875 352.238 632.003C353.123 631.131 342.341 631.755 342.341 631.755Z" fill="#4391A7"/>
<path d="M371.685 627.437L371.612 627.494C357.082 639.105 315.293 629.622 311.951 628.826C311.82 628.81 311.743 628.785 311.743 628.785L311.098 624.782C358.729 606.847 371.685 627.437 371.685 627.437Z" fill="#4391A7"/>
<path d="M371.606 627.494C357.076 639.105 315.286 629.621 311.945 628.825C343.749 618.419 361.993 622.443 371.606 627.494Z" fill="#6C9AA7"/>
<path d="M313.149 624.676L301.083 613.594C301.083 613.594 301.233 622.918 305.672 626.021C305.672 626.021 299.284 629.707 297.824 639.797L313.959 628.183L313.149 624.676Z" fill="#4391A7"/>
<path d="M323.476 621.704C323.476 621.704 320.923 619.369 321.201 617.543C321.48 615.716 335.012 618.744 335.012 618.744L323.476 621.704Z" fill="#4391A7"/>
<path d="M364.021 624.316C363.862 625.608 362.682 626.527 361.388 626.367C360.096 626.206 359.176 625.025 359.339 623.733C359.5 622.438 360.679 621.521 361.972 621.682C363.263 621.843 364.184 623.02 364.021 624.316Z" fill="white"/>
<path d="M363.099 624.242C362.991 625.119 362.189 625.743 361.311 625.633C360.433 625.523 359.809 624.723 359.919 623.848C360.027 622.969 360.828 622.344 361.707 622.454C362.584 622.562 363.207 623.365 363.099 624.242Z" fill="#1B2C3E"/>
<path d="M282.059 764.894C282.059 764.894 279.821 767.512 280.998 770.088C280.998 770.088 288.827 767.84 293.365 765.855C297.904 763.867 282.059 764.894 282.059 764.894Z" fill="#4391A7"/>
<path d="M302.514 766.721C302.514 766.721 300.233 769.694 301.079 770.16C301.924 770.628 311.526 767.841 312.409 766.969C313.294 766.095 302.514 766.721 302.514 766.721Z" fill="#4391A7"/>
<path d="M331.857 762.402L331.784 762.459C317.254 774.07 275.464 764.587 272.123 763.791C271.992 763.774 271.915 763.75 271.915 763.75L271.27 759.747C318.899 741.812 331.857 762.402 331.857 762.402Z" fill="#4391A7"/>
<path d="M331.786 762.458C317.256 774.069 275.466 764.586 272.125 763.789C303.929 753.385 322.173 757.407 331.786 762.458Z" fill="#6C9AA7"/>
<path d="M273.321 759.641L261.255 748.559C261.255 748.559 261.405 757.883 265.844 760.986C265.844 760.986 259.456 764.672 257.996 774.762L274.13 763.148L273.321 759.641Z" fill="#4391A7"/>
<path d="M283.656 756.661C283.656 756.661 281.103 754.326 281.38 752.5C281.66 750.673 295.192 753.701 295.192 753.701L283.656 756.661Z" fill="#4391A7"/>
<path d="M324.195 759.273C324.035 760.565 322.855 761.484 321.561 761.324C320.269 761.163 319.35 759.982 319.51 758.69C319.671 757.395 320.85 756.479 322.144 756.639C323.436 756.8 324.356 757.978 324.195 759.273Z" fill="white"/>
<path d="M323.275 759.207C323.166 760.084 322.365 760.707 321.487 760.597C320.608 760.487 319.986 759.688 320.094 758.813C320.203 757.934 321.004 757.309 321.882 757.419C322.759 757.527 323.383 758.33 323.275 759.207Z" fill="#1B2C3E"/>
<path d="M20.9387 661.122C20.9387 661.122 19.4988 664.252 21.3376 666.407C21.3376 666.407 28.253 662.109 32.0785 658.96C35.9007 655.808 20.9387 661.122 20.9387 661.122Z" fill="#4391A7"/>
<path d="M41.1094 657.293C41.1094 657.293 39.727 660.777 40.6678 660.994C41.6102 661.212 50.0854 655.911 50.6978 654.83C51.3102 653.748 41.1094 657.293 41.1094 657.293Z" fill="#4391A7"/>
<path d="M68.1554 645.131L68.1012 645.206C57.293 660.342 14.5035 662.629 11.0704 662.775C10.9407 662.795 10.857 662.792 10.857 662.792L9.14453 659.117C50.0706 628.86 68.1554 645.131 68.1554 645.131Z" fill="#4391A7"/>
<path d="M68.105 645.201C57.2968 660.337 14.5073 662.624 11.0742 662.77C38.8295 644.078 57.4774 642.968 68.105 645.201Z" fill="#6C9AA7"/>
<path d="M11.093 658.451L-3.53906 651.082C-3.53906 651.082 -0.849736 660.012 4.26787 661.785C4.26787 661.785 -0.871078 667.077 0.478511 677.182L12.8284 661.603L11.093 658.451Z" fill="#4391A7"/>
<path d="M20.2204 652.771C20.2204 652.771 17.1289 651.223 16.8974 649.389C16.6675 647.555 30.5115 646.773 30.5115 646.773L20.2204 652.771Z" fill="#4391A7"/>
<path d="M59.9361 644.216C60.1365 645.501 59.2515 646.71 57.961 646.909C56.6738 647.106 55.4671 646.222 55.2701 644.933C55.0714 643.645 55.9563 642.439 57.2435 642.242C58.5324 642.045 59.7375 642.925 59.9361 644.216Z" fill="white"/>
<path d="M59.0336 644.395C59.1682 645.268 58.5673 646.086 57.6939 646.221C56.8188 646.355 56.0011 645.756 55.8665 644.883C55.7319 644.008 56.3328 643.188 57.2062 643.054C58.0797 642.921 58.899 643.52 59.0336 644.395Z" fill="#1B2C3E"/>
<path d="M93.4023 822.215C93.4023 822.215 94.261 826.498 97.7549 827.34C97.7549 827.34 101.646 817.769 103.219 811.684C104.79 805.598 93.4023 822.215 93.4023 822.215Z" fill="#4391A7"/>
<path d="M111.246 803.234C111.246 803.234 112.428 807.839 113.558 807.36C114.686 806.884 119.426 795.118 119.248 793.552C119.069 791.986 111.246 803.234 111.246 803.234Z" fill="#4391A7"/>
<path d="M129.922 770.563V770.683C130.126 794.28 87.9242 828.553 84.5125 831.264C84.3926 831.382 84.3072 831.439 84.3072 831.439L79.8086 828.946C99.2233 767.365 129.922 770.563 129.922 770.563Z" fill="#4391A7"/>
<path d="M129.926 770.684C130.129 794.28 87.9274 828.553 84.5156 831.264C99.0459 791.377 117.352 776.322 129.926 770.684Z" fill="#6C9AA7"/>
<path d="M81.3162 826.809L60.8047 830.168C60.8047 830.168 70.2272 837.323 76.8027 835.323C76.8027 835.323 75.4778 844.586 84.4012 853.948L85.4503 828.748L81.3162 826.809Z" fill="#4391A7"/>
<path d="M86.4376 814.182C86.4376 814.182 82.1081 814.902 80.5024 813.194C78.8983 811.485 92.5206 800.352 92.5206 800.352L86.4376 814.182Z" fill="#4391A7"/>
<path d="M120.808 775.764C121.97 776.938 121.966 778.836 120.79 780.001C119.618 781.164 117.72 781.157 116.557 779.982C115.39 778.808 115.4 776.913 116.574 775.747C117.744 774.585 119.642 774.588 120.808 775.764Z" fill="white"/>
<path d="M120.012 776.624C120.801 777.419 120.796 778.706 120 779.497C119.202 780.287 117.915 780.284 117.127 779.487C116.334 778.691 116.339 777.402 117.137 776.612C117.935 775.823 119.223 775.828 120.012 776.624Z" fill="#1B2C3E"/>
<path d="M299.487 674.937C299.487 674.937 298.187 678.127 300.117 680.2C300.117 680.2 306.837 675.6 310.518 672.285C314.199 668.967 299.487 674.937 299.487 674.937Z" fill="#4391A7"/>
<path d="M319.473 670.214C319.473 670.214 318.247 673.756 319.197 673.931C320.148 674.109 328.378 668.438 328.945 667.331C329.508 666.223 319.473 670.214 319.473 670.214Z" fill="#4391A7"/>
<path d="M345.959 656.871L345.909 656.949C335.78 672.548 293.132 676.723 289.71 677.02C289.58 677.046 289.498 677.046 289.498 677.046L287.625 673.451C327.172 641.417 345.959 656.871 345.959 656.871Z" fill="#4391A7"/>
<path d="M345.905 656.946C335.777 672.546 293.129 676.721 289.707 677.018C316.607 657.119 335.189 655.185 345.905 656.946Z" fill="#6C9AA7"/>
<path d="M289.538 672.707L274.594 665.992C274.594 665.992 277.674 674.796 282.869 676.339C282.869 676.339 277.969 681.851 279.762 691.889L291.411 675.779L289.538 672.707Z" fill="#4391A7"/>
<path d="M298.402 666.624C298.402 666.624 295.243 665.214 294.931 663.393C294.621 661.572 308.415 660.18 308.415 660.18L298.402 666.624Z" fill="#4391A7"/>
<path d="M337.704 656.329C337.958 657.605 337.129 658.851 335.85 659.105C334.573 659.36 333.328 658.529 333.074 657.252C332.818 655.973 333.648 654.73 334.926 654.475C336.205 654.222 337.448 655.048 337.704 656.329Z" fill="white"/>
<path d="M336.806 656.54C336.98 657.406 336.417 658.251 335.549 658.423C334.682 658.596 333.838 658.033 333.664 657.166C333.492 656.297 334.053 655.453 334.922 655.281C335.788 655.109 336.634 655.673 336.806 656.54Z" fill="#1B2C3E"/>
<path d="M90.8641 755.589C90.8641 755.589 90.2419 760.235 93.4911 762.31C93.4911 762.31 100.778 753.957 104.5 748.332C108.22 742.707 90.8641 755.589 90.8641 755.589Z" fill="#4391A7"/>
<path d="M115.595 742.552C115.595 742.552 115.187 747.637 116.498 747.543C117.812 747.454 126.725 737.175 127.093 735.521C127.459 733.87 115.595 742.552 115.595 742.552Z" fill="#4391A7"/>
<path d="M145.946 715.936L145.907 716.054C137.878 740.066 83.1032 760.106 78.6949 761.662C78.534 761.741 78.424 761.767 78.424 761.767L74.7266 757.669C115.922 701.975 145.946 715.936 145.946 715.936Z" fill="#4391A7"/>
<path d="M145.899 716.055C137.871 740.067 83.0958 760.107 78.6875 761.663C107.352 726.27 131.18 717.388 145.899 716.055Z" fill="#6C9AA7"/>
<path d="M76.9943 756.037L55.0117 752.285C55.0117 752.285 62.0733 762.834 69.4418 763.098C69.4418 763.098 64.8644 772.032 70.6502 784.647L80.5078 759.448L76.9943 756.037Z" fill="#4391A7"/>
<path d="M86.6019 745.002C86.6019 745.002 81.9587 744.219 80.926 741.927C79.8966 739.632 97.5989 733.094 97.5989 733.094L86.6019 745.002Z" fill="#4391A7"/>
<path d="M134.885 718.031C135.656 719.625 134.986 721.549 133.389 722.321C131.79 723.092 129.869 722.421 129.099 720.825C128.326 719.226 128.995 717.307 130.593 716.535C132.192 715.765 134.113 716.431 134.885 718.031Z" fill="white"/>
<path d="M133.776 718.625C134.303 719.705 133.846 721.012 132.761 721.534C131.676 722.056 130.372 721.605 129.852 720.521C129.326 719.437 129.779 718.13 130.865 717.608C131.947 717.085 133.253 717.538 133.776 718.625Z" fill="#1B2C3E"/>
<path d="M124.067 666.7C124.067 666.7 122.717 670.749 125.274 673.159C125.274 673.159 133.21 666.925 137.489 662.526C141.774 658.124 124.067 666.7 124.067 666.7Z" fill="#4391A7"/>
<path d="M148.39 659.25C148.39 659.25 147.16 663.729 148.352 663.868C149.541 664.011 159.261 656.331 159.868 654.916C160.475 653.5 148.39 659.25 148.39 659.25Z" fill="#4391A7"/>
<path d="M180.063 640.592L180.004 640.692C168.748 660.803 116.352 669.426 112.146 670.071C111.986 670.114 111.885 670.121 111.885 670.121L109.277 665.825C155.575 623.006 180.063 640.592 180.063 640.592Z" fill="#4391A7"/>
<path d="M179.999 640.688C168.743 660.799 116.347 669.422 112.141 670.067C143.79 643.279 166.61 639.38 179.999 640.688Z" fill="#6C9AA7"/>
<path d="M111.583 664.747L92.5586 657.656C92.5586 657.656 97.0835 668.29 103.628 669.78C103.628 669.78 98.0177 676.994 101.05 689.258L114.147 668.394L111.583 664.747Z" fill="#4391A7"/>
<path d="M122.05 656.514C122.05 656.514 118.032 655.027 117.497 652.799C116.963 650.572 133.91 647.73 133.91 647.73L122.05 656.514Z" fill="#4391A7"/>
<path d="M169.808 640.584C170.225 642.142 169.3 643.75 167.742 644.17C166.182 644.587 164.575 643.663 164.161 642.103C163.738 640.542 164.664 638.938 166.225 638.519C167.78 638.1 169.387 639.021 169.808 640.584Z" fill="white"/>
<path d="M168.714 640.937C169 641.993 168.37 643.081 167.312 643.365C166.253 643.649 165.165 643.024 164.881 641.966C164.597 640.907 165.226 639.817 166.283 639.533C167.339 639.249 168.434 639.876 168.714 640.937Z" fill="#1B2C3E"/>
<path d="M197.805 560.824C197.805 560.824 196.456 564.873 199.012 567.283C199.012 567.283 206.949 561.049 211.227 556.651C215.512 552.25 197.805 560.824 197.805 560.824Z" fill="#4391A7"/>
<path d="M222.128 553.367C222.128 553.367 220.898 557.846 222.09 557.985C223.279 558.128 232.999 550.448 233.606 549.032C234.214 547.619 222.128 553.367 222.128 553.367Z" fill="#4391A7"/>
<path d="M253.798 534.717L253.739 534.817C242.482 554.93 190.086 563.551 185.88 564.196C185.721 564.239 185.619 564.246 185.619 564.246L183.012 559.95C229.311 517.131 253.798 534.717 253.798 534.717Z" fill="#4391A7"/>
<path d="M253.742 534.817C242.485 554.93 190.089 563.551 185.883 564.196C217.532 537.408 240.352 533.509 253.742 534.817Z" fill="#6C9AA7"/>
<path d="M185.321 558.876L166.297 551.785C166.297 551.785 170.822 562.419 177.366 563.908C177.366 563.908 171.756 571.123 174.788 583.387L187.885 562.523L185.321 558.876Z" fill="#4391A7"/>
<path d="M195.788 550.643C195.788 550.643 191.77 549.156 191.235 546.928C190.701 544.701 207.648 541.859 207.648 541.859L195.788 550.643Z" fill="#4391A7"/>
<path d="M203.984 687.498C203.984 687.498 200.761 684.006 201.39 683.375C202.024 682.746 210.808 677.035 212.417 676.524C214.027 676.013 204.347 687.808 204.347 687.808" fill="#4391A7"/>
<path d="M215.242 673.357C215.242 673.357 211.926 672.493 212.461 671.869C212.996 671.248 222.724 663.281 227.912 662.596C233.099 661.911 215.242 673.357 215.242 673.357Z" fill="#4391A7"/>
<path d="M211.618 693.338C211.618 693.338 210.834 697.897 211.862 697.699C212.893 697.498 223.626 686.79 223.685 685.669C223.747 684.549 211.618 693.338 211.618 693.338Z" fill="#4391A7"/>
<path d="M257.402 654.555C257.371 654.616 257.342 654.698 257.312 654.76C246.555 679.933 198.158 701.476 198.158 701.476L198.094 701.398L194.719 696.66C235.66 641.916 253.357 652.964 255.125 653.271C256.897 653.58 257.402 654.555 257.402 654.555Z" fill="#4391A7"/>
<path d="M257.308 654.765C246.55 679.938 198.154 701.48 198.154 701.48L198.09 701.403C232.189 658.532 250.019 654.304 257.308 654.765Z" fill="#6C9AA7"/>
<path d="M195.811 696.172L173.633 697.321C173.633 697.321 181.147 704.319 189.793 703.176C189.793 703.176 187.393 713.741 189.887 719.762L198.894 701.137L195.965 696.305" fill="#4391A7"/>
<path d="M247.566 655.748C248.804 656.812 248.945 658.677 247.883 659.915C246.819 661.153 244.954 661.292 243.716 660.23C242.479 659.168 242.338 657.301 243.4 656.065C244.466 654.827 246.329 654.686 247.566 655.748Z" fill="white"/>
<path d="M246.856 656.66C247.697 657.382 247.792 658.648 247.069 659.489C246.349 660.329 245.083 660.424 244.242 659.702C243.402 658.981 243.305 657.714 244.029 656.873C244.75 656.034 246.015 655.939 246.856 656.66Z" fill="#1B2C3E"/>
<path d="M361.402 563.737C361.402 563.737 360.487 559.074 361.353 558.867C362.221 558.662 372.694 558.401 374.335 558.808C375.976 559.219 361.548 564.192 361.548 564.192" fill="#4391A7"/>
<path d="M378.393 557.589C378.393 557.589 376.021 555.115 376.802 554.865C377.582 554.616 390.046 552.928 394.822 555.062C399.599 557.197 378.393 557.589 378.393 557.589Z" fill="#4391A7"/>
<path d="M364.841 572.711C364.841 572.711 361.785 576.185 362.764 576.553C363.745 576.924 378.499 573.427 379.139 572.503C379.778 571.58 364.841 572.711 364.841 572.711Z" fill="#4391A7"/>
<path d="M424.149 563.669C424.092 563.703 424.023 563.759 423.965 563.797C401.613 579.6 349.104 572.589 349.104 572.589L349.089 572.489L348.695 566.685C412.251 541.512 421.535 560.195 422.885 561.383C424.23 562.574 424.149 563.669 424.149 563.669Z" fill="#4391A7"/>
<path d="M423.966 563.793C401.614 579.596 349.105 572.585 349.105 572.585L349.09 572.485C400.596 553.84 417.999 559.582 423.966 563.793Z" fill="#6C9AA7"/>
<path d="M349.894 566.838L330.402 556.195C330.402 556.195 333.136 566.092 341.099 569.652C341.099 569.652 333.519 577.391 332.487 583.826L349.919 572.683L349.957 567.033" fill="#4391A7"/>
<path d="M415.155 559.527C415.655 561.081 414.793 562.744 413.242 563.243C411.69 563.739 410.026 562.883 409.528 561.327C409.031 559.775 409.888 558.112 411.441 557.615C412.999 557.116 414.659 557.974 415.155 559.527Z" fill="white"/>
<path d="M414.072 559.931C414.407 560.987 413.828 562.115 412.772 562.453C411.718 562.789 410.588 562.21 410.252 561.153C409.915 560.097 410.495 558.969 411.551 558.631C412.608 558.294 413.734 558.875 414.072 559.931Z" fill="#1B2C3E"/>
<path d="M251.348 717.822C251.348 717.822 250.754 728.264 213.287 739.325C213.059 739.389 212.819 739.465 212.591 739.529L210.051 737.349C210.051 737.349 232.416 705.262 251.235 717.748C251.272 717.781 251.308 717.789 251.348 717.822Z" fill="#4391A7"/>
<path d="M251.346 717.821C251.346 717.821 250.752 728.264 213.285 739.325C217.871 733.33 235.039 712.689 251.233 717.748C251.271 717.78 251.307 717.789 251.346 717.821Z" fill="#6C9AA7"/>
<path d="M211.173 736.871L197.27 738.726C197.27 738.726 202.747 743.296 208.682 740.953C208.682 740.953 207.84 748.075 210.536 751.001L213.274 738.677L211.173 736.871Z" fill="#4391A7"/>
<path d="M214.085 733.489C214.085 733.489 210.613 732.806 210.199 728.327L219.165 727.573L220.497 726.418C220.497 726.418 215.937 722.906 216.225 718.556C216.225 718.556 224.523 718.11 228.911 720.323L214.345 733.581" fill="#4391A7"/>
<path d="M219.262 736.916C219.262 736.916 219.876 741.163 220.482 740.534C221.089 739.905 224.45 734.812 224.552 734.696C224.65 734.578 219.262 736.916 219.262 736.916Z" fill="#4391A7"/>
<path d="M235.962 730.228C235.962 730.228 232.968 734.421 233.431 734.748C233.893 735.078 240.096 742.03 240.17 740.132C240.243 738.234 238.994 731.343 237.666 728.243C236.339 725.142 236.095 730.072 236.095 730.072" fill="#4391A7"/>
<path d="M244.023 718.777C245.012 719.626 245.125 721.117 244.276 722.105C243.426 723.093 241.937 723.205 240.948 722.358C239.957 721.507 239.847 720.018 240.695 719.03C241.544 718.042 243.033 717.927 244.023 718.777Z" fill="white"/>
<path d="M243.455 719.504C244.127 720.08 244.201 721.092 243.626 721.761C243.05 722.433 242.038 722.51 241.367 721.934C240.695 721.356 240.62 720.345 241.194 719.673C241.771 719.005 242.784 718.928 243.455 719.504Z" fill="#1B2C3E"/>
<path d="M50.1083 782.406C50.1083 782.406 55.8826 791.128 32.493 822.415C32.3485 822.603 32.2024 822.807 32.0563 822.994L28.7168 822.768C28.7168 822.768 27.4247 783.677 49.9736 782.415C50.0229 782.42 50.0557 782.405 50.1083 782.406Z" fill="#4391A7"/>
<path d="M50.1114 782.406C50.1114 782.406 55.8857 791.128 32.4961 822.415C32.5815 814.869 33.977 788.056 49.9784 782.415C50.026 782.42 50.0588 782.405 50.1114 782.406Z" fill="#6C9AA7"/>
<path d="M29.3392 821.715L19.3125 831.525C19.3125 831.525 26.4348 831.906 29.7858 826.476C29.7858 826.476 33.3748 832.686 37.2857 833.415L32.1024 821.904L29.3392 821.715Z" fill="#4391A7"/>
<path d="M29.6437 817.261C29.6437 817.261 26.4536 818.792 23.4408 815.451L30.1724 809.48L30.5467 807.756C30.5467 807.756 24.7937 807.672 22.418 804.016C22.418 804.016 28.7981 798.69 33.6366 797.836L29.9064 817.175" fill="#4391A7"/>
<path d="M35.8359 816.909C35.8359 816.909 38.87 819.945 38.98 819.078C39.0901 818.211 38.7338 812.119 38.7453 811.964C38.7535 811.813 35.8359 816.909 35.8359 816.909Z" fill="#4391A7"/>
<path d="M45.2149 801.56C45.2149 801.56 45.3281 806.711 45.8946 806.696C46.461 806.685 55.5913 808.54 54.5142 806.974C53.4372 805.409 48.3114 800.638 45.3922 798.948C42.473 797.257 45.228 801.354 45.228 801.354" fill="#4391A7"/>
<path d="M44.8177 787.556C46.1181 787.643 47.1015 788.77 47.0129 790.072C46.9242 791.372 45.7963 792.354 44.4976 792.265C43.194 792.176 42.2138 791.05 42.3024 789.751C42.3911 788.451 43.5174 787.468 44.8177 787.556Z" fill="white"/>
<path d="M44.7926 788.484C45.6759 788.543 46.3392 789.308 46.2801 790.192C46.2193 791.073 45.4575 791.742 44.5742 791.683C43.6909 791.622 43.0227 790.857 43.0818 789.975C43.1442 789.092 43.9109 788.424 44.7926 788.484Z" fill="#1B2C3E"/>
<path d="M160.226 611.181C160.226 611.181 150.691 623.639 94.8706 605.802C94.5341 605.689 94.1729 605.58 93.8363 605.469L92.5195 600.622C92.5195 600.622 147.314 579.643 160.148 610.997C160.168 611.066 160.206 611.105 160.226 611.181Z" fill="#4391A7"/>
<path d="M160.23 611.18C160.23 611.18 150.696 623.638 94.875 605.801C105.616 602.225 144.317 591.072 160.153 610.997C160.172 611.065 160.21 611.104 160.23 611.18Z" fill="#6C9AA7"/>
<path d="M94.3148 600.987L75.4961 591.574C75.4961 591.574 78.4432 601.859 87.7852 603.952C87.7852 603.952 80.7368 612.082 81.6201 617.985L95.4017 604.996L94.3148 600.987Z" fill="#4391A7"/>
<path d="M100.78 599.234C100.78 599.234 97.0483 595.461 100.309 589.552L112.071 596.172L114.7 595.86C114.7 595.86 111.999 587.659 116.021 582.5C116.021 582.5 126.698 588.938 130.279 595.382L101.031 599.564" fill="#4391A7"/>
<path d="M104.315 607.848C104.315 607.848 101.498 613.635 102.78 613.368C104.064 613.1 112.524 609.609 112.752 609.549C112.971 609.489 104.315 607.848 104.315 607.848Z" fill="#4391A7"/>
<path d="M130.678 613.618C130.678 613.618 123.43 616.3 123.728 617.097C124.023 617.893 125.865 631.748 127.555 629.456C129.246 627.164 133.501 617.56 134.465 612.591C135.434 607.625 130.975 613.539 130.975 613.539" fill="#4391A7"/>
<path d="M150.329 606.207C150.842 608.09 149.727 610.037 147.839 610.551C145.952 611.062 144.007 609.945 143.496 608.059C142.982 606.169 144.099 604.227 145.987 603.714C147.873 603.202 149.819 604.315 150.329 606.207Z" fill="white"/>
<path d="M149.006 606.625C149.352 607.904 148.592 609.224 147.313 609.569C146.031 609.917 144.714 609.16 144.366 607.881C144.018 606.599 144.776 605.279 146.055 604.931C147.334 604.586 148.656 605.345 149.006 606.625Z" fill="#1B2C3E"/>
<path d="M237.801 635.027C237.801 635.027 233.896 643.96 197.564 641.479C197.343 641.463 197.109 641.45 196.891 641.433L195.379 638.703C195.379 638.703 225.329 617.912 237.727 634.93C237.748 634.968 237.778 634.984 237.801 635.027Z" fill="#4391A7"/>
<path d="M237.799 635.026C237.799 635.026 233.895 643.96 197.562 641.479C203.516 637.727 225.214 625.254 237.725 634.928C237.746 634.967 237.776 634.984 237.799 635.026Z" fill="#6C9AA7"/>
<path d="M196.512 638.652L183.758 635.766C183.758 635.766 187.063 641.537 193.011 641.41C193.011 641.41 189.966 647.362 191.373 650.793L197.763 640.909L196.512 638.652Z" fill="#4391A7"/>
<path d="M200.152 636.643C200.152 636.643 197.34 634.923 198.431 630.871L206.511 633.122L208.051 632.544C208.051 632.544 205.206 627.996 206.869 624.285C206.869 624.285 214.265 626.585 217.383 629.943L200.354 636.806" fill="#4391A7"/>
<path d="M203.56 641.314C203.56 641.314 202.719 645.223 203.453 644.872C204.187 644.52 208.777 641.158 208.902 641.089C209.029 641.018 203.56 641.314 203.56 641.314Z" fill="#4391A7"/>
<path d="M220.324 640.886C220.324 640.886 216.348 643.58 216.645 644.017C216.942 644.453 220.109 652.541 220.789 650.907C221.468 649.274 222.611 642.844 222.457 639.704C222.303 636.563 220.492 640.792 220.492 640.792" fill="#4391A7"/>
<path d="M231.089 633.49C231.677 634.553 231.293 635.892 230.232 636.482C229.168 637.07 227.83 636.685 227.242 635.623C226.651 634.559 227.035 633.223 228.099 632.633C229.163 632.042 230.503 632.425 231.089 633.49Z" fill="white"/>
<path d="M230.356 633.943C230.755 634.663 230.492 635.573 229.771 635.97C229.051 636.371 228.143 636.11 227.744 635.389C227.341 634.668 227.603 633.757 228.325 633.36C229.046 632.959 229.957 633.22 230.356 633.943Z" fill="#1B2C3E"/>
<path d="M203.593 833.243C203.69 833.013 198.651 832.637 199.012 831.429C197.353 827.965 213.697 818.733 217.905 823.056C219.683 823.351 212.829 823.34 209.169 826.197C204.936 828.564 203.897 833.798 204.078 833.314" fill="#4391A7"/>
<path d="M215.512 819.002C215.524 818.83 211.972 820.393 212.138 819.522C210.035 817.687 223.465 803.735 232.351 809.535C235.973 811.564 229.179 809.78 224.184 812.044C218.773 813.574 215.158 819.155 215.512 819.002Z" fill="#4391A7"/>
<path d="M206.974 831.876C206.748 832.02 208.25 836.854 209.184 835.829C209.445 835.773 212.739 832.368 216.371 828.881C222.848 822.663 225.317 817.841 225.734 817.979C226.688 817.449 219.334 819.76 214.41 822.07C209.14 823.793 206.669 832.151 206.974 831.876Z" fill="#4391A7"/>
<path d="M272.735 803.785C272.647 803.8 272.54 803.831 272.453 803.848C255.003 806.563 232.891 812.511 218.722 823.06C203.977 832.747 197.175 847.034 197.048 846.519C197.015 846.511 196.983 846.502 196.951 846.494C195.096 845.892 193.22 845.33 191.328 844.811C199.117 800.513 233.356 791.338 249.365 791.911C264.029 792.437 269.69 799.172 271.112 801.037C272.638 803.05 272.727 803.792 272.735 803.785Z" fill="#4391A7"/>
<path d="M272.531 803.982C254.993 806.594 232.823 812.662 218.779 823.403C204.134 833.272 197.612 847.813 197.489 847.292C197.456 847.286 197.423 847.277 197.391 847.269C201.246 814.923 226.305 801.537 242.287 798.383C259.738 794.973 268.113 801.794 272.531 803.982Z" fill="#6C9AA7"/>
<path d="M192.776 843.203L173.91 854.918C173.91 854.918 183.87 857.418 190.89 852.243C190.89 852.243 193.89 862.654 198.979 866.721L197.874 846.062L192.977 843.246" fill="#4391A7"/>
<path d="M257.442 796.412C258.621 797.541 258.654 799.413 257.524 800.589C256.393 801.763 254.523 801.8 253.346 800.668C252.17 799.538 252.137 797.668 253.267 796.492C254.4 795.315 256.268 795.281 257.442 796.412Z" fill="white"/>
<path d="M256.684 797.279C257.481 798.049 257.505 799.316 256.737 800.116C255.97 800.914 254.699 800.94 253.9 800.17C253.102 799.403 253.077 798.134 253.847 797.333C254.616 796.535 255.885 796.512 256.684 797.279Z" fill="#1B2C3E"/>
<path d="M199.706 823.859C199.706 823.859 193.795 825.22 193.677 823.286C193.559 821.352 202.774 809.998 208.928 808.427C215.08 806.854 199.706 823.859 199.706 823.859Z" fill="#4391A7"/>
<path d="M221.506 800.123C221.506 800.123 215.92 797.761 216.956 796.124C217.994 794.489 232.115 790.691 238.023 793.022C243.928 795.357 221.506 800.123 221.506 800.123Z" fill="#4391A7"/>
<path d="M390.576 769.621C390.576 769.621 388.774 772.555 390.337 774.917C390.337 774.917 397.722 771.476 401.894 768.808C406.066 766.138 390.576 769.621 390.576 769.621Z" fill="#4391A7"/>
<path d="M411.059 768.237C411.059 768.237 409.271 771.53 410.179 771.859C411.087 772.19 420.135 767.939 420.876 766.94C421.611 765.94 411.059 768.237 411.059 768.237Z" fill="#4391A7"/>
<path d="M439.375 759.397L439.309 759.466C426.767 773.2 384.01 770.346 380.585 770.08C380.454 770.085 380.372 770.07 380.372 770.07L379.109 766.217C423.365 741.077 439.375 759.397 439.375 759.397Z" fill="#4391A7"/>
<path d="M439.306 759.471C426.764 773.205 384.007 770.352 380.582 770.086C410.376 754.851 429.024 755.982 439.306 759.471Z" fill="#6C9AA7"/>
<path d="M381.126 765.798L367.48 756.73C367.48 756.73 369.08 765.92 373.951 768.291C373.951 768.291 368.216 772.927 368.344 783.123L382.47 769.136L381.126 765.798Z" fill="#4391A7"/>
<path d="M390.865 761.253C390.865 761.253 387.979 759.344 387.969 757.497C387.961 755.65 401.798 756.53 401.798 756.53L390.865 761.253Z" fill="#4391A7"/>
<path d="M431.318 757.51C431.36 758.81 430.338 759.904 429.034 759.946C427.732 759.989 426.64 758.966 426.599 757.664C426.555 756.361 427.578 755.272 428.88 755.228C430.186 755.187 431.277 756.205 431.318 757.51Z" fill="white"/>
<path d="M430.396 757.578C430.426 758.461 429.733 759.202 428.848 759.23C427.966 759.258 427.224 758.565 427.196 757.683C427.165 756.798 427.856 756.056 428.741 756.028C429.626 755.999 430.367 756.695 430.396 757.578Z" fill="#1B2C3E"/>
<path d="M411.985 671.473C411.985 671.473 409.337 673.673 410.058 676.411C410.058 676.411 418.157 675.525 422.964 674.338C427.773 673.149 411.985 671.473 411.985 671.473Z" fill="#4391A7"/>
<path d="M431.83 676.734C431.83 676.734 429.08 679.279 429.834 679.882C430.587 680.486 440.522 679.368 441.543 678.659C442.561 677.948 431.83 676.734 431.83 676.734Z" fill="#4391A7"/>
<path d="M461.483 677.462L461.399 677.505C445.109 686.484 405.536 670.047 402.378 668.696C402.252 668.658 402.18 668.619 402.18 668.619L402.222 664.564C452.206 654.974 461.483 677.462 461.483 677.462Z" fill="#4391A7"/>
<path d="M461.404 677.51C445.113 686.49 405.54 670.053 402.383 668.702C435.489 663.842 452.786 670.904 461.404 677.51Z" fill="#6C9AA7"/>
<path d="M404.267 664.809L394.255 651.84C394.255 651.84 392.819 661.055 396.67 664.866C396.67 664.866 389.75 667.416 386.598 677.113L404.466 668.404L404.267 664.809Z" fill="#4391A7"/>
<path d="M414.95 663.632C414.95 663.632 412.83 660.899 413.414 659.145C414.001 657.393 426.822 662.672 426.822 662.672L414.95 663.632Z" fill="#4391A7"/>
<path d="M380.265 716.723C380.265 716.723 377.511 720.517 379.391 723.884C379.391 723.884 389.768 719.987 395.709 716.8C401.654 713.613 380.265 716.723 380.265 716.723Z" fill="#4391A7"/>
<path d="M408.216 716.978C408.216 716.978 405.445 721.26 406.645 721.8C407.842 722.345 420.566 717.523 421.671 716.242C422.776 714.962 408.216 716.978 408.216 716.978Z" fill="#4391A7"/>
<path d="M447.562 707.937L447.469 708.022C429.011 725.352 371.286 717.015 366.666 716.296C366.487 716.287 366.377 716.259 366.377 716.259L365.066 710.899C427.747 681.407 447.562 707.937 447.562 707.937Z" fill="#4391A7"/>
<path d="M447.463 708.023C429.006 725.353 371.28 717.016 366.66 716.297C408.681 698.734 433.872 702.215 447.463 708.023Z" fill="#6C9AA7"/>
<path d="M367.841 710.534L350.269 696.805C350.269 696.805 351.482 709.442 357.844 713.169C357.844 713.169 349.577 718.863 348.688 732.713L369.317 715.206L367.841 710.534Z" fill="#4391A7"/>
<path d="M381.535 705.383C381.535 705.383 377.818 702.492 377.999 699.985C378.178 697.475 396.865 700.116 396.865 700.116L381.535 705.383Z" fill="#4391A7"/>
<path d="M436.824 704.539C436.746 706.309 435.246 707.685 433.471 707.608C431.701 707.527 430.327 706.027 430.406 704.255C430.483 702.482 431.985 701.11 433.757 701.187C435.53 701.267 436.902 702.764 436.824 704.539Z" fill="white"/>
<path d="M435.568 704.537C435.517 705.737 434.498 706.672 433.291 706.617C432.092 706.563 431.157 705.547 431.209 704.345C431.263 703.142 432.28 702.207 433.486 702.26C434.687 702.312 435.621 703.334 435.568 704.537Z" fill="#1B2C3E"/>
<path d="M462.297 641.405L452.02 623.668C452.02 623.668 445.416 628.19 452.116 638.525C452.116 638.525 444.167 638.1 438.875 648.251L461.316 645.222L462.297 641.405Z" fill="#4391A7"/>
<path d="M-13.3568 592.18C-13.3568 592.18 -16.9918 589.569 -16.0461 589.063C-15.1004 588.556 0.49211 583.435 7.13005 585.041C13.7647 586.647 -13.3568 592.18 -13.3568 592.18Z" fill="#4391A7"/>
<path d="M46.8088 589.133C46.7398 589.192 46.666 589.279 46.5986 589.338C21.6641 614.921 -47.3883 618.377 -47.3883 618.377L-47.4326 618.254L-49.3125 610.897C26.2842 563.518 42.6303 585.292 44.6449 586.498C46.6495 587.709 46.8088 589.133 46.8088 589.133Z" fill="#4391A7"/>
<path d="M46.6015 589.342C21.667 614.925 -47.3854 618.381 -47.3854 618.381L-47.4297 618.258C14.2525 582.11 37.9491 585.352 46.6015 589.342Z" fill="#6C9AA7"/>
<path d="M34.2819 585.958C35.2917 587.833 34.5808 590.173 32.7058 591.181C30.8357 592.185 28.4945 591.483 27.4897 589.603C26.4849 587.728 27.1859 585.391 29.0642 584.385C30.9424 583.377 33.2771 584.085 34.2819 585.958Z" fill="white"/>
<path d="M32.9886 586.727C33.6667 588.001 33.1922 589.587 31.9165 590.27C30.6457 590.953 29.0532 590.475 28.3718 589.199C27.6921 587.925 28.1698 586.339 29.4406 585.653C30.7196 584.973 32.3023 585.451 32.9886 586.727Z" fill="#1B2C3E"/>
</g>
<mask id="mask1_808_80" style="mask-type:luminance" maskUnits="userSpaceOnUse" x="-190" y="-518" width="759" height="759">
<path d="M-189.999 -0.424495L327.578 240.926L568.928 -276.652L51.3511 -518.002L-189.999 -0.424495Z" fill="white"/>
</mask>
<g mask="url(#mask1_808_80)">
<path d="M361.436 -5.79659C361.436 -5.79659 360.477 -8.22004 359.896 -7.88224C359.315 -7.54597 357.544 -0.820066 357.748 0.0210629C357.953 0.861157 361.436 -5.79659 361.436 -5.79659Z" fill="#4391A7"/>
<path d="M353.519 13.2544L353.512 13.1903C351.778 0.366991 372.382 -21.1774 374.052 -22.8863C374.109 -22.9594 374.152 -22.9958 374.152 -22.9958L376.772 -21.9494C370.439 12.8857 353.519 13.2544 353.519 13.2544Z" fill="#4391A7"/>
<path d="M353.513 13.1915C351.78 0.368244 372.383 -21.1762 374.054 -22.885C368.888 -0.187085 359.965 9.26107 353.513 13.1915Z" fill="#6C9AA7"/>
<path d="M358.12 9.80192C357.407 9.24501 357.279 8.21121 357.838 7.4964C358.396 6.78263 359.429 6.65681 360.143 7.21523C360.858 7.77413 360.983 8.80546 360.425 9.51972C359.866 10.234 358.835 10.3623 358.12 9.80192Z" fill="white"/>
<path d="M358.493 9.27532C358.009 8.89714 357.923 8.19638 358.303 7.71078C358.681 7.22677 359.383 7.14066 359.865 7.5194C360.35 7.89911 360.437 8.60034 360.057 9.08442C359.68 9.56892 358.978 9.65503 358.493 9.27532Z" fill="#1B2C3E"/>
<path d="M402.675 0.752901C402.675 0.752901 401.879 -2.40979 399.243 -2.91058C399.243 -2.91058 396.692 4.36754 395.741 8.96121C394.79 13.5549 402.675 0.752901 402.675 0.752901Z" fill="#4391A7"/>
<path d="M390.066 15.5565C390.066 15.5565 389.018 12.1677 388.194 12.5663C387.369 12.9629 384.264 21.9046 384.454 23.0655C384.645 24.2284 390.066 15.5565 390.066 15.5565Z" fill="#4391A7"/>
<path d="M377.335 40.5844L377.33 40.4967C376.318 22.9133 406.527 -4.17355 408.972 -6.31751C409.057 -6.41027 409.12 -6.45646 409.12 -6.45646L412.565 -4.76316C400.335 41.8502 377.335 40.5844 377.335 40.5844Z" fill="#4391A7"/>
<path d="M377.329 40.5002C376.317 22.9168 406.525 -4.17002 408.971 -6.31398C399.592 23.9503 386.494 35.839 377.329 40.5002Z" fill="#6C9AA7"/>
<path d="M411.52 -3.117L426.688 -6.36789C426.688 -6.36789 419.403 -11.3604 414.575 -9.62814C414.575 -9.62814 415.225 -16.5804 408.232 -23.2365L408.369 -4.41364L411.52 -3.117Z" fill="#4391A7"/>
<path d="M408.16 6.48959C408.16 6.48959 411.362 5.79607 412.619 7.01108C413.878 8.22706 404.128 17.0217 404.128 17.0217L408.16 6.48959Z" fill="#4391A7"/>
<path d="M383.939 36.3776C383.028 35.5461 382.964 34.1309 383.797 33.219C384.63 32.3092 386.044 32.2465 386.954 33.0781C387.867 33.9106 387.928 35.3243 387.097 36.2346C386.262 37.146 384.85 37.2122 383.939 36.3776Z" fill="white"/>
<path d="M384.499 35.7081C383.881 35.145 383.839 34.184 384.405 33.5656C384.969 32.9492 385.929 32.9041 386.545 33.4688C387.165 34.0349 387.209 34.9943 386.643 35.6127C386.078 36.2301 385.118 36.2737 384.499 35.7081Z" fill="#1B2C3E"/>
<path d="M314.131 -7.23804C314.141 -7.24239 313.967 -10.8283 313.052 -10.6158C312.212 -10.3813 306.721 -2.39484 306.471 -1.23217C306.342 0.0109835 314.188 -7.1839 314.131 -7.23804Z" fill="#4391A7"/>
<path d="M293.259 13.517C293.27 13.4891 293.281 13.4602 293.292 13.4313C300.037 -2.32721 334.893 -23.1839 337.409 -26.5096C337.507 -26.5976 337.577 -26.6415 337.577 -26.6415C338.671 -25.9728 339.766 -25.3073 340.863 -24.6454C319.01 23.8323 291.517 13.4052 293.259 13.517Z" fill="#4391A7"/>
<path d="M293.29 13.4305C300.034 -2.32803 334.891 -23.1847 337.407 -26.5104C323.278 4.22696 303.441 12.3279 293.29 13.4305Z" fill="#6C9AA7"/>
<path d="M334.446 -13.3337C334.443 -13.325 337.863 -13.6948 338.918 -12.3016C340.036 -10.7711 327.903 -2.84843 327.852 -2.98296C330.159 -6.38987 332.357 -9.84132 334.446 -13.3337Z" fill="#4391A7"/>
<path d="M301.334 11.6393C300.77 10.5407 301.243 9.14559 302.389 8.50824C303.534 7.87399 304.942 8.22389 305.532 9.30841C306.127 10.3933 305.656 11.8135 304.484 12.4653C303.309 13.1162 301.897 12.7414 301.334 11.6393Z" fill="white"/>
<path d="M302.141 11.156C301.753 10.4129 302.075 9.46394 302.856 9.02921C303.634 8.59711 304.591 8.83413 304.989 9.57135C305.39 10.3105 305.072 11.2727 304.279 11.7129C303.486 12.1535 302.527 11.9007 302.141 11.156Z" fill="#1B2C3E"/>
<path d="M251.998 41.3162C251.998 41.3162 253.194 35.9555 273.549 33.4081C273.673 33.394 273.802 33.3751 273.926 33.362L275.057 34.7077C275.057 34.7077 260.74 49.433 252.05 41.3618C252.032 41.3434 252.015 41.3367 251.998 41.3162Z" fill="#4391A7"/>
<path d="M251.998 41.3158C251.998 41.3158 253.194 35.9551 273.548 33.4076C270.663 36.1237 260.011 45.361 252.05 41.3624C252.032 41.3429 252.015 41.3362 251.998 41.3158Z" fill="#6C9AA7"/>
<path d="M274.431 34.8558L281.793 35.0762C281.793 35.0762 279.344 32.2418 276.068 32.9521C276.068 32.9521 277.11 29.3335 275.961 27.5892L273.495 33.7414L274.431 34.8558Z" fill="#4391A7"/>
<path d="M272.635 36.3646C272.635 36.3646 274.376 37.0136 274.21 39.3712L269.499 38.9981L268.711 39.4836C268.711 39.4836 270.775 41.6914 270.255 43.9227C270.255 43.9227 265.918 43.449 263.832 41.9281L272.507 36.2971" fill="#4391A7"/>
<path d="M270.246 34.1481C270.246 34.1481 270.289 31.8961 269.922 32.1698C269.554 32.443 267.378 34.7972 267.316 34.849C267.254 34.9018 270.246 34.1481 270.246 34.1481Z" fill="#4391A7"/>
<path d="M261.838 37.4449C261.838 37.4449 264.512 37.0346 264.466 36.741C264.419 36.447 264.763 31.5664 264.023 32.2335C263.282 32.9011 261.147 35.8956 260.466 37.5314C259.785 39.1658 261.729 37.4525 261.729 37.4525" fill="#4391A7"/>
<path d="M255.873 41.4413C255.433 40.9173 255.501 40.1362 256.025 39.6947C256.548 39.2558 257.331 39.3243 257.771 39.8483C258.213 40.3733 258.144 41.1529 257.619 41.5949C257.094 42.0344 256.312 41.9674 255.873 41.4413Z" fill="white"/>
<path d="M256.229 41.1184C255.931 40.7617 255.978 40.2316 256.334 39.9336C256.689 39.6342 257.219 39.681 257.517 40.0367C257.817 40.3908 257.77 40.9235 257.416 41.2209C257.06 41.5188 256.528 41.4736 256.229 41.1184Z" fill="#1B2C3E"/>
<path d="M199.276 77.2865C199.276 77.2865 201.088 74.4818 199.948 74.2662C198.806 74.0516 188.987 78.4404 188.63 79.3858C188.274 80.3301 199.016 77.4035 199.016 77.4035" fill="#4391A7"/>
<path d="M177.663 123.448C177.663 123.448 184.062 123.135 184.98 123.532C185.898 123.93 182.302 126.326 182.302 126.326L177.542 123.524" fill="#4391A7"/>
<path d="M169.288 117.725C169.288 117.725 171.648 117.263 171.308 116.784C170.969 116.305 165.746 113.705 162.745 113.675L169.288 117.725Z" fill="#4391A7"/>
<path d="M146.509 107.3C158.813 107.789 189.404 129.787 189.871 130.129C189.886 130.132 189.886 130.132 189.886 130.132L188.818 133.481C188.818 133.481 163.493 130.366 154.049 122.002C144.997 113.987 146.368 107.83 146.494 107.321C146.504 107.315 146.509 107.3 146.509 107.3Z" fill="#4391A7"/>
<path d="M146.508 107.298C158.812 107.788 189.404 129.785 189.871 130.127C189.094 130.043 164.111 127.266 154.261 118.549C149.187 114.048 147.209 110.1 146.494 107.319C146.504 107.313 146.508 107.298 146.508 107.298Z" fill="#6C9AA7"/>
<path d="M180.801 131.737L179.041 134.677C179.041 134.677 175.174 133.536 171.429 129.956L180.801 131.737Z" fill="#4391A7"/>
<path d="M186.916 132.481L193.603 145.077C193.603 145.077 198.311 142.104 193.92 134.747C193.92 134.747 199.436 135.247 203.377 128.325L187.698 129.853L186.916 132.481Z" fill="#4391A7"/>
<path d="M150.747 113.469C151.517 112.992 152.53 113.228 153.008 113.999C153.486 114.77 153.247 115.783 152.478 116.259C151.706 116.739 150.694 116.5 150.217 115.73C149.74 114.959 149.975 113.947 150.747 113.469Z" fill="white"/>
<path d="M151.109 114C151.632 113.676 152.318 113.837 152.642 114.361C152.966 114.884 152.806 115.572 152.283 115.895C151.761 116.22 151.072 116.059 150.748 115.536C150.423 115.011 150.585 114.324 151.109 114Z" fill="#1B2C3E"/>
<path d="M327.409 116.313C327.409 116.313 333.479 114.26 334.47 114.39C335.461 114.52 332.66 117.81 332.66 117.81L327.313 116.418" fill="#4391A7"/>
<path d="M317.783 113.105C317.783 113.105 319.926 112.015 319.468 111.647C319.011 111.279 313.277 110.209 310.382 111.002L317.783 113.105Z" fill="#4391A7"/>
<path d="M293.021 109.316C304.988 106.417 340.435 119.194 340.978 119.395C340.993 119.394 340.993 119.394 340.993 119.394L340.883 122.908C340.883 122.908 315.675 126.848 304.299 121.391C293.399 116.162 293.029 109.865 293.013 109.341C293.021 109.332 293.021 109.316 293.021 109.316Z" fill="#4391A7"/>
<path d="M293.022 109.316C304.989 106.417 340.436 119.194 340.979 119.395C340.209 119.527 315.42 123.699 303.56 118.014C297.446 115.075 294.463 111.82 293.013 109.34C293.022 109.332 293.022 109.316 293.022 109.316Z" fill="#6C9AA7"/>
<path d="M332.696 123.427L331.808 126.737C331.808 126.737 327.776 126.698 323.193 124.281L332.696 123.427Z" fill="#4391A7"/>
<path d="M338.782 122.471L348.663 132.754C348.663 132.754 352.377 128.605 346.138 122.732C346.138 122.732 351.581 121.702 353.475 113.966L338.814 119.73L338.782 122.471Z" fill="#4391A7"/>
<path d="M298.789 114.086C299.399 113.417 300.438 113.367 301.109 113.978C301.779 114.589 301.827 115.628 301.217 116.297C300.605 116.969 299.568 117.017 298.896 116.406C298.228 115.796 298.178 114.758 298.789 114.086Z" fill="white"/>
<path d="M299.286 114.498C299.701 114.044 300.405 114.01 300.859 114.425C301.315 114.84 301.348 115.544 300.933 115.999C300.521 116.454 299.814 116.487 299.358 116.073C298.904 115.658 298.871 114.952 299.286 114.498Z" fill="#1B2C3E"/>
<path d="M393.455 79.9274C393.455 79.9274 397.129 74.6778 398.004 74.1951C398.881 73.7128 398.571 78.0222 398.571 78.0222L393.441 80.0683" fill="#4391A7"/>
<path d="M383.799 83.0445C383.799 83.0445 384.88 80.897 384.293 80.8706C383.707 80.8452 378.453 83.3796 376.59 85.7335L383.799 83.0445Z" fill="#4391A7"/>
<path d="M361.604 94.6608C369.529 85.2368 405.655 74.5329 406.212 74.3716C406.224 74.3621 406.224 74.3621 406.224 74.3621L408.217 77.2585C408.217 77.2585 390.242 95.3668 377.843 97.7076C365.964 99.9514 361.937 95.0972 361.612 94.6835C361.615 94.6732 361.604 94.6608 361.604 94.6608Z" fill="#4391A7"/>
<path d="M361.607 94.662C369.531 85.2381 405.658 74.5342 406.215 74.3728C405.674 74.9359 388.173 92.9806 375.25 95.4272C368.584 96.6804 364.252 95.8248 361.616 94.6863C361.618 94.6745 361.607 94.662 361.607 94.662Z" fill="#6C9AA7"/>
<path d="M401.928 82.5297L403.172 85.7226C403.172 85.7226 399.901 88.0797 394.777 88.8462L401.928 82.5297Z" fill="#4391A7"/>
<path d="M406.265 78.1522L420.317 80.5828C420.317 80.5828 420.851 75.0398 412.346 74.004C412.346 74.004 416.122 69.9509 413.065 62.596L404.667 75.924L406.265 78.1522Z" fill="#4391A7"/>
<path d="M369.08 95.0872C369.175 94.1852 369.983 93.5311 370.885 93.6255C371.787 93.7209 372.441 94.5298 372.346 95.4297C372.251 96.3331 371.445 96.9852 370.542 96.8919C369.641 96.7969 368.985 95.9896 369.08 95.0872Z" fill="white"/>
<path d="M369.724 95.1238C369.788 94.5124 370.336 94.0683 370.948 94.1333C371.561 94.1983 372.005 94.7457 371.94 95.3571C371.877 95.9689 371.328 96.4136 370.716 96.3501C370.104 96.2851 369.659 95.7362 369.724 95.1238Z" fill="#1B2C3E"/>
<path d="M125.983 82.4946C125.983 82.4946 128.164 81.5025 128.178 79.5317C128.178 79.5317 122.581 78.6473 119.136 78.5647C115.691 78.484 125.983 82.4946 125.983 82.4946Z" fill="#4391A7"/>
<path d="M113.623 75.336C113.623 75.336 115.935 74.1318 115.538 73.5888C115.142 73.0452 108.269 71.98 107.456 72.27C106.642 72.5595 113.623 75.336 113.623 75.336Z" fill="#4391A7"/>
<path d="M93.8516 69.4308L93.914 69.4158C106.489 66.3671 130.048 84.6323 131.921 86.1166C131.999 86.1656 132.04 86.2038 132.04 86.2038L131.27 88.9172C95.9664 86.2216 93.8516 69.4308 93.8516 69.4308Z" fill="#4391A7"/>
<path d="M93.9133 69.4128C106.488 66.3641 130.048 84.6293 131.92 86.1137C108.809 83.3241 98.4893 75.4232 93.9133 69.4128Z" fill="#6C9AA7"/>
<path d="M129.944 88.3822L134.293 98.9168C134.293 98.9168 136.94 92.9943 135.053 89.7326C135.053 89.7326 140.165 89.2869 144.052 83.3539L130.464 85.9331L129.944 88.3822Z" fill="#4391A7"/>
<path d="M122.557 87.2148C122.557 87.2148 123.48 89.4374 122.768 90.5069C122.055 91.577 114.414 85.6898 114.414 85.6898L122.557 87.2148Z" fill="#4391A7"/>
<path d="M97.7648 73.649C98.2451 72.8812 99.2597 72.6486 100.028 73.1304C100.795 73.6117 101.028 74.6263 100.546 75.3932C100.063 76.1626 99.0509 76.3937 98.2825 75.9118C97.5161 75.431 97.2815 74.418 97.7648 73.649Z" fill="white"/>
<path d="M98.3249 73.9652C98.651 73.4443 99.3396 73.2865 99.861 73.6141C100.383 73.9417 100.541 74.6292 100.214 75.1486C99.8876 75.6706 99.1985 75.8294 98.6771 75.5018C98.1562 75.1757 97.9988 74.4861 98.3249 73.9652Z" fill="#1B2C3E"/>
<path d="M190.768 9.11153C190.768 9.11153 192.948 8.11942 192.963 6.14917C192.963 6.14917 187.367 5.26478 183.922 5.1821C180.475 5.101 190.768 9.11153 190.768 9.11153Z" fill="#4391A7"/>
<path d="M178.408 1.94858C178.408 1.94858 180.72 0.744385 180.324 0.20181C179.928 -0.3418 173.055 -1.40694 172.242 -1.11697C171.427 -0.826439 178.408 1.94858 178.408 1.94858Z" fill="#4391A7"/>
<path d="M158.641 -3.95986L158.703 -3.97486C171.278 -7.02357 194.838 11.2417 196.71 12.726C196.788 12.775 196.829 12.8132 196.829 12.8132L196.059 15.5266C160.757 12.8315 158.641 -3.95986 158.641 -3.95986Z" fill="#4391A7"/>
<path d="M158.702 -3.96959C171.277 -7.01831 194.837 11.2469 196.709 12.7313C173.598 9.94066 163.278 2.04075 158.702 -3.96959Z" fill="#6C9AA7"/>
<path d="M194.733 14.9955L199.082 25.5301C199.082 25.5301 201.729 19.6076 199.842 16.3459C199.842 16.3459 204.954 15.9002 208.841 9.96721L195.254 12.5464L194.733 14.9955Z" fill="#4391A7"/>
<path d="M187.346 13.832C187.346 13.832 188.269 16.0546 187.558 17.1241C186.844 18.1942 179.203 12.3069 179.203 12.3069L187.346 13.832Z" fill="#4391A7"/>
<path d="M162.549 0.265848C163.029 -0.501997 164.044 -0.734613 164.812 -0.252799C165.58 0.228531 165.812 1.2431 165.331 2.01047C164.849 2.7799 163.836 3.01095 163.068 2.52914C162.301 2.04781 162.067 1.03528 162.549 0.265848Z" fill="white"/>
<path d="M163.106 0.582458C163.432 0.0615441 164.121 -0.0962548 164.643 0.231345C165.164 0.558945 165.321 1.24601 164.996 1.76589C164.669 2.28784 163.98 2.44667 163.459 2.11907C162.938 1.79299 162.78 1.10337 163.106 0.582458Z" fill="#1B2C3E"/>
<path d="M324.896 151.314C324.896 151.314 326.724 149.764 326.198 147.864C326.198 147.864 320.574 148.541 317.237 149.402C313.9 150.266 324.896 151.314 324.896 151.314Z" fill="#4391A7"/>
<path d="M311.053 147.795C311.053 147.795 312.949 146.004 312.42 145.591C311.89 145.176 304.988 146.027 304.284 146.528C303.58 147.031 311.053 147.795 311.053 147.795Z" fill="#4391A7"/>
<path d="M290.423 147.513L290.479 147.482C301.743 141.116 329.394 152.254 331.602 153.172C331.689 153.197 331.741 153.224 331.741 153.224L331.74 156.044C297.041 163.089 290.423 147.513 290.423 147.513Z" fill="#4391A7"/>
<path d="M290.477 147.482C301.741 141.117 329.392 152.255 331.599 153.172C308.604 156.797 296.521 152.015 290.477 147.482Z" fill="#6C9AA7"/>
<path d="M330.32 155.888L337.379 164.836C337.379 164.836 338.309 158.415 335.603 155.793C335.603 155.793 340.399 153.967 342.519 147.199L330.153 153.391L330.32 155.888Z" fill="#4391A7"/>
<path d="M322.893 156.788C322.893 156.788 324.387 158.673 323.994 159.897C323.599 161.121 314.641 157.543 314.641 157.543L322.893 156.788Z" fill="#4391A7"/>
<path d="M295.336 150.503C295.588 149.633 296.501 149.132 297.373 149.386C298.242 149.64 298.743 150.552 298.489 151.422C298.235 152.293 297.323 152.793 296.453 152.539C295.583 152.284 295.082 151.375 295.336 150.503Z" fill="white"/>
<path d="M295.961 150.655C296.133 150.065 296.753 149.726 297.343 149.898C297.934 150.07 298.274 150.689 298.102 151.279C297.929 151.87 297.309 152.21 296.719 152.038C296.129 151.865 295.789 151.246 295.961 150.655Z" fill="#1B2C3E"/>
<path d="M326.568 28.4413C326.568 28.4413 327.286 25.4881 325.331 23.9299C325.331 23.9299 320.064 28.8209 317.283 32.1947C314.503 35.5701 326.568 28.4413 326.568 28.4413Z" fill="#4391A7"/>
<path d="M309.738 35.1646C309.738 35.1646 310.347 31.9135 309.494 31.8837C308.643 31.8522 302.195 37.8766 301.846 38.9163C301.499 39.9564 309.738 35.1646 309.738 35.1646Z" fill="#4391A7"/>
<path d="M288.358 50.2682L288.393 50.1926C295.202 35.2555 331.886 26.054 334.834 25.348C334.944 25.3088 335.015 25.2976 335.015 25.2976L337.118 28.1926C306.773 61.3102 288.358 50.2682 288.358 50.2682Z" fill="#4391A7"/>
<path d="M288.393 50.1924C295.202 35.2553 331.886 26.0538 334.834 25.3478C313.946 46.224 297.978 50.3342 288.393 50.1924Z" fill="#6C9AA7"/>
<path d="M335.544 29.0946L349.464 33.0071C349.464 33.0071 345.627 25.7256 340.893 25.0532C340.893 25.0532 344.452 19.6025 341.578 11.0765L333.508 26.6567L335.544 29.0946Z" fill="#4391A7"/>
<path d="M328.597 35.551C328.597 35.551 331.538 36.3705 332.048 37.9191C332.557 39.4683 320.695 42.4827 320.695 42.4827L328.597 35.551Z" fill="#4391A7"/>
<path d="M295.633 49.671C295.246 48.5891 295.807 47.3939 296.891 47.0046C297.971 46.6163 299.166 47.1785 299.553 48.2614C299.944 49.3447 299.381 50.5364 298.298 50.9262C297.218 51.3149 296.023 50.7549 295.633 49.671Z" fill="white"/>
<path d="M296.391 49.361C296.127 48.6278 296.508 47.8177 297.243 47.5529C297.978 47.2896 298.789 47.6701 299.052 48.4038C299.317 49.139 298.935 49.9502 298.2 50.2135C297.465 50.4768 296.654 50.0948 296.391 49.361Z" fill="#1B2C3E"/>
<path d="M153.336 60.71C153.336 60.71 155.094 59.0809 154.486 57.2059C154.486 57.2059 148.897 58.1307 145.601 59.1385C142.305 60.1483 153.336 60.71 153.336 60.71Z" fill="#4391A7"/>
<path d="M139.351 57.8099C139.351 57.8099 141.165 55.9377 140.618 55.5474C140.07 55.1561 133.214 56.3118 132.531 56.8429C131.85 57.3761 139.351 57.8099 139.351 57.8099Z" fill="#4391A7"/>
<path d="M118.727 58.4374L118.782 58.4038C129.754 51.5465 157.87 61.4528 160.115 62.2713C160.204 62.2929 160.256 62.3171 160.256 62.3171L160.38 65.1348C126.028 73.7049 118.727 58.4374 118.727 58.4374Z" fill="#4391A7"/>
<path d="M118.784 58.4028C129.756 51.5456 157.872 61.4518 160.117 62.2704C137.307 66.9079 125.022 62.6641 118.784 58.4028Z" fill="#6C9AA7"/>
<path d="M158.955 65.0406L166.402 73.668C166.402 73.668 167.049 67.2119 164.227 64.7116C164.227 64.7116 168.936 62.677 170.757 55.8209L158.677 62.5531L158.955 65.0406Z" fill="#4391A7"/>
<path d="M151.574 66.2666C151.574 66.2666 153.151 68.0845 152.812 69.3242C152.473 70.5635 143.366 67.3856 143.366 67.3856L151.574 66.2666Z" fill="#4391A7"/>
<path d="M123.77 61.2051C123.985 60.326 124.874 59.7841 125.755 59.9996C126.635 60.2147 127.176 61.1044 126.961 61.9846C126.746 62.8663 125.857 63.4056 124.977 63.1905C124.096 62.9739 123.555 62.0878 123.77 61.2051Z" fill="white"/>
<path d="M124.402 61.3316C124.547 60.7349 125.15 60.3674 125.748 60.514C126.346 60.6602 126.712 61.2634 126.567 61.8611C126.42 62.4594 125.818 62.8264 125.22 62.6797C124.623 62.5335 124.256 61.9288 124.402 61.3316Z" fill="#1B2C3E"/>
<path d="M308.58 71.19C308.58 71.19 310.338 68.4435 308.9 66.1798C308.9 66.1798 301.85 69.3044 297.85 71.7566C293.85 74.2092 308.58 71.19 308.58 71.19Z" fill="#4391A7"/>
<path d="M289.161 72.1407C289.161 72.1407 290.913 69.055 290.059 68.7283C289.205 68.398 280.563 72.2586 279.845 73.1928C279.128 74.1266 289.161 72.1407 289.161 72.1407Z" fill="#4391A7"/>
<path d="M262.195 79.9979L262.255 79.935C274.376 67.1563 314.803 70.625 318.04 70.9397C318.165 70.9373 318.242 70.9531 318.242 70.9531L319.368 74.6239C277.021 97.627 262.195 79.9979 262.195 79.9979Z" fill="#4391A7"/>
<path d="M262.257 79.935C274.378 67.1563 314.805 70.625 318.042 70.9397C289.563 84.8271 271.929 83.4219 262.257 79.935Z" fill="#6C9AA7"/>
<path d="M317.458 74.9843L330.215 83.8125C330.215 83.8125 328.864 75.0855 324.296 72.7525C324.296 72.7525 329.808 68.466 329.87 58.8108L316.246 71.8003L317.458 74.9843Z" fill="#4391A7"/>
<path d="M308.157 79.1153C308.157 79.1153 310.854 80.9742 310.831 82.7229C310.806 84.4727 297.722 83.3902 297.722 83.3902L308.157 79.1153Z" fill="#4391A7"/>
<path d="M269.789 81.9268C269.771 80.6948 270.759 79.6786 271.993 79.6617C273.228 79.6454 274.242 80.6335 274.258 81.8661C274.276 83.1016 273.289 84.1148 272.055 84.1317C270.82 84.147 269.805 83.162 269.789 81.9268Z" fill="white"/>
<path d="M270.665 81.8751C270.65 81.039 271.322 80.3492 272.16 80.3391C272.998 80.329 273.687 80.9969 273.696 81.8331C273.709 82.6708 273.039 83.3616 272.201 83.3717C271.365 83.3838 270.675 82.7139 270.665 81.8751Z" fill="#1B2C3E"/>
<path d="M261.513 117.472C261.513 117.472 263.554 115.316 262.651 113.045C262.651 113.045 255.814 114.642 251.823 116.157C247.827 117.672 261.513 117.472 261.513 117.472Z" fill="#4391A7"/>
<path d="M243.988 115.02C243.988 115.02 246.081 112.558 245.37 112.12C244.663 111.68 236.276 113.665 235.477 114.379C234.678 115.092 243.988 115.02 243.988 115.02Z" fill="#4391A7"/>
<path d="M218.535 117.473L218.602 117.427C231.611 108.057 267.181 118.025 270.023 118.855C270.136 118.875 270.202 118.9 270.202 118.9L270.583 122.375C228.804 135.76 218.535 117.473 218.535 117.473Z" fill="#4391A7"/>
<path d="M218.605 117.427C231.614 108.057 267.184 118.024 270.026 118.854C242.196 126.439 226.662 122.188 218.605 117.427Z" fill="#6C9AA7"/>
<path d="M268.813 122.374L278.723 132.438C278.723 132.438 278.996 124.402 275.308 121.54C275.308 121.54 280.966 118.64 282.66 110.016L268.268 119.321L268.813 122.374Z" fill="#4391A7"/>
<path d="M259.794 124.487C259.794 124.487 261.89 126.606 261.572 128.168C261.254 129.729 249.734 126.538 249.734 126.538L259.794 124.487Z" fill="#4391A7"/>
<path d="M224.997 120.487C225.192 119.382 226.247 118.64 227.353 118.833C228.459 119.029 229.201 120.084 229.003 121.189C228.811 122.298 227.756 123.037 226.648 122.842C225.545 122.649 224.802 121.596 224.997 120.487Z" fill="white"/>
<path d="M225.793 120.589C225.923 119.839 226.641 119.338 227.391 119.47C228.142 119.602 228.645 120.317 228.513 121.067C228.38 121.818 227.664 122.32 226.913 122.189C226.164 122.057 225.658 121.34 225.793 120.589Z" fill="#1B2C3E"/>
<path d="M183.895 162.546C183.895 162.546 185.937 160.39 185.033 158.119C185.033 158.119 178.197 159.716 174.206 161.232C170.21 162.746 183.895 162.546 183.895 162.546Z" fill="#4391A7"/>
<path d="M166.367 160.095C166.367 160.095 168.459 157.633 167.749 157.194C167.041 156.755 158.655 158.739 157.856 159.453C157.058 160.166 166.367 160.095 166.367 160.095Z" fill="#4391A7"/>
<path d="M140.918 162.543L140.985 162.498C153.995 153.126 189.564 163.095 192.406 163.925C192.519 163.945 192.585 163.971 192.585 163.971L192.966 167.445C151.186 180.83 140.918 162.543 140.918 162.543Z" fill="#4391A7"/>
<path d="M140.984 162.501C153.994 153.13 189.563 163.099 192.405 163.928C164.575 171.513 149.041 167.262 140.984 162.501Z" fill="#6C9AA7"/>
<path d="M191.196 167.444L201.105 177.508C201.105 177.508 201.379 169.473 197.691 166.61C197.691 166.61 203.349 163.711 205.043 155.087L190.651 164.391L191.196 167.444Z" fill="#4391A7"/>
<path d="M182.173 169.561C182.173 169.561 184.269 171.68 183.951 173.242C183.633 174.803 172.113 171.612 172.113 171.612L182.173 169.561Z" fill="#4391A7"/>
<path d="M147.379 165.561C147.575 164.456 148.63 163.714 149.736 163.908C150.842 164.103 151.584 165.159 151.386 166.264C151.194 167.373 150.138 168.112 149.031 167.917C147.927 167.723 147.184 166.67 147.379 165.561Z" fill="white"/>
<path d="M148.171 165.667C148.301 164.917 149.018 164.416 149.769 164.548C150.52 164.68 151.022 165.395 150.891 166.145C150.759 166.897 150.042 167.399 149.292 167.267C148.542 167.134 148.037 166.418 148.171 165.667Z" fill="#1B2C3E"/>
<path d="M217.24 80.8624C217.24 80.8624 218.245 84.0117 217.663 84.2244C217.079 84.4345 209.861 85.4533 208.697 85.3022C207.531 85.1506 217.102 80.5601 217.102 80.5601" fill="#4391A7"/>
<path d="M205.987 86.4715C205.987 86.4715 207.824 87.991 207.304 88.227C206.784 88.4609 198.308 90.6245 194.835 89.5309C191.364 88.4377 205.987 86.4715 205.987 86.4715Z" fill="#4391A7"/>
<path d="M214.143 74.9367C214.143 74.9367 215.977 72.2923 215.271 72.1154C214.562 71.9385 204.647 75.5344 204.28 76.224C203.911 76.9117 214.143 74.9367 214.143 74.9367Z" fill="#4391A7"/>
<path d="M173.878 85.9281C173.916 85.899 173.959 85.8559 173.996 85.8253C188.179 73.1169 225.025 73.7632 225.025 73.7632L225.043 73.8307L225.778 77.8106C183.871 100.289 175.961 88.1206 174.937 87.4071C173.91 86.6917 173.878 85.9281 173.878 85.9281Z" fill="#4391A7"/>
<path d="M173.997 85.8244C188.18 73.1161 225.027 73.7624 225.027 73.7624L225.045 73.8299C190.941 90.8346 178.457 88.258 173.997 85.8244Z" fill="#6C9AA7"/>
<path d="M224.939 77.7961L239.26 83.5918C239.26 83.5918 236.579 76.9707 230.792 75.1492C230.792 75.1492 235.412 69.1937 235.609 64.6646L224.455 73.7593L224.881 77.6669" fill="#4391A7"/>
<path d="M180.427 88.0657C179.959 87.031 180.418 85.8135 181.452 85.3453C182.487 84.8776 183.704 85.338 184.172 86.3717C184.639 87.4049 184.179 88.6234 183.146 89.0905C182.11 89.5578 180.894 89.0989 180.427 88.0657Z" fill="white"/>
<path d="M181.143 87.7013C180.826 86.9987 181.138 86.1726 181.84 85.855C182.542 85.5369 183.368 85.8491 183.686 86.5517C184.004 87.2532 183.692 88.0809 182.989 88.398C182.287 88.715 181.461 88.4029 181.143 87.7013Z" fill="#1B2C3E"/>
<path d="M81.6097 112.614C81.6097 112.614 80.8154 115.823 80.2091 115.699C79.6011 115.573 72.9211 112.658 72.0067 111.919C71.0922 111.178 81.6513 112.284 81.6513 112.284" fill="#4391A7"/>
<path d="M69.0826 111.494C69.0826 111.494 69.8509 113.751 69.2848 113.679C68.7198 113.607 60.3657 111.007 57.9819 108.257C55.5971 105.507 69.0826 111.494 69.0826 111.494Z" fill="#4391A7"/>
<path d="M82.0763 105.941C82.0763 105.941 85.0241 104.649 84.5153 104.13C84.0054 103.607 73.6753 101.475 72.9999 101.869C72.3259 102.263 82.0763 105.941 82.0763 105.941Z" fill="#4391A7"/>
<path d="M42.0239 94.2075C42.0703 94.2026 42.1302 94.1877 42.1775 94.1808C60.9161 90.7889 91.9613 110.647 91.9613 110.647L91.9411 110.714L90.4832 114.489C43.0116 111.675 42.6505 97.1663 42.1491 96.0201C41.6512 94.8743 42.0239 94.2075 42.0239 94.2075Z" fill="#4391A7"/>
<path d="M42.1775 94.1823C60.9161 90.7904 91.9613 110.648 91.9613 110.648L91.9412 110.716C53.9858 107.328 44.7011 98.5916 42.1775 94.1823Z" fill="#6C9AA7"/>
<path d="M89.7731 114.04L98.9336 126.48C98.9336 126.48 100.12 119.437 96.1458 114.852C96.1458 114.852 103.201 112.2 105.742 108.447L91.476 110.348L89.7912 113.898" fill="#4391A7"/>
<path d="M46.4792 99.4618C46.6201 98.3354 47.6525 97.5402 48.7775 97.6816C49.9015 97.8252 50.6997 98.8539 50.5557 99.9815C50.4132 101.106 49.3839 101.903 48.2584 101.76C47.1293 101.616 46.3352 100.587 46.4792 99.4618Z" fill="white"/>
<path d="M47.2811 99.5272C47.3803 98.7631 48.0773 98.2223 48.8424 98.3195C49.6059 98.4172 50.1477 99.1147 50.049 99.8803C49.9509 100.645 49.2539 101.186 48.4888 101.088C47.7232 100.99 47.184 100.292 47.2811 99.5272Z" fill="#1B2C3E"/>
<path d="M196.294 47.8251C196.294 47.8251 199.738 41.4163 226.612 45.4577C226.775 45.4844 226.949 45.5073 227.111 45.534L228.072 47.6554C228.072 47.6554 204.537 61.3101 196.343 47.905C196.329 47.8732 196.309 47.8574 196.294 47.8251Z" fill="#4391A7"/>
<path d="M196.296 47.8236C196.296 47.8236 199.741 41.4148 226.615 45.4562C221.962 47.8873 205.068 55.8537 196.346 47.9035C196.332 47.8717 196.311 47.8559 196.296 47.8236Z" fill="#6C9AA7"/>
<path d="M227.223 47.6234L236.534 50.5412C236.534 50.5412 234.424 46.0501 229.993 45.7823C229.993 45.7823 232.618 41.5394 231.778 38.9022L226.429 45.8669L227.223 47.6234Z" fill="#4391A7"/>
<path d="M224.392 48.8999C224.392 48.8999 226.381 50.3514 225.325 53.297L219.45 51.1361L218.271 51.4734C218.271 51.4734 220.113 55.028 218.653 57.6857C218.653 57.6857 213.29 55.5277 211.174 52.842L224.256 48.7657" fill="#4391A7"/>
<path d="M222.138 45.2188C222.138 45.2188 223 42.3604 222.433 42.5787C221.865 42.7966 218.249 45.0195 218.15 45.0631C218.054 45.1087 222.138 45.2188 222.138 45.2188Z" fill="#4391A7"/>
<path d="M209.642 44.5242C209.642 44.5242 212.762 42.7604 212.566 42.4183C212.372 42.0746 210.505 35.8681 209.9 37.043C209.296 38.2179 208.058 42.9298 207.984 45.2747C207.908 47.6201 209.512 44.5835 209.512 44.5835" fill="#4391A7"/>
<path d="M201.194 49.3734C200.82 48.5476 201.187 47.5744 202.013 47.2008C202.84 46.8276 203.812 47.1951 204.186 48.0198C204.561 48.8475 204.192 49.8188 203.367 50.1924C202.541 50.566 201.568 50.2006 201.194 49.3734Z" fill="white"/>
<path d="M201.765 49.0797C201.511 48.5189 201.762 47.8595 202.321 47.6061C202.882 47.3522 203.543 47.6009 203.797 48.1616C204.05 48.7234 203.8 49.3833 203.241 49.6377C202.681 49.8896 202.019 49.6404 201.765 49.0797Z" fill="#1B2C3E"/>
<path d="M342.165 66.2654C342.165 66.2654 341.088 59.069 365.033 46.2196C365.18 46.1431 365.332 46.0577 365.479 45.9826L367.518 47.1073C367.518 47.1073 356.84 72.1332 342.252 66.2998C342.222 66.2822 342.197 66.2819 342.165 66.2654Z" fill="#4391A7"/>
<path d="M342.163 66.2663C342.163 66.2663 341.087 59.0699 365.032 46.2206C362.76 50.953 353.997 67.4479 342.25 66.3003C342.221 66.2832 342.196 66.2828 342.163 66.2663Z" fill="#6C9AA7"/>
<path d="M366.815 47.5873L376.021 44.3501C376.021 44.3501 371.642 42.016 367.933 44.4541C367.933 44.4541 367.496 39.4839 365.245 37.8745L365.128 46.6559L366.815 47.5873Z" fill="#4391A7"/>
<path d="M365.311 50.3084C365.311 50.3084 367.773 50.2805 368.69 53.2728L362.691 55.0586L361.948 56.0354C361.948 56.0354 365.55 57.7796 365.973 60.7834C365.973 60.7834 360.385 62.2656 357.083 61.3814L365.121 50.285" fill="#4391A7"/>
<path d="M361.306 48.7043C361.306 48.7043 360.286 45.8982 359.962 46.4125C359.638 46.9267 358.071 50.8729 358.018 50.9668C357.969 51.0596 361.306 48.7043 361.306 48.7043Z" fill="#4391A7"/>
<path d="M350.877 55.6317C350.877 55.6317 352.32 52.3511 351.958 52.1939C351.598 52.0346 346.387 48.1806 346.605 49.4848C346.824 50.7879 348.653 55.3031 349.997 57.2265C351.341 59.151 350.808 55.7583 350.808 55.7583" fill="#4391A7"/>
<path d="M347.014 64.5757C346.22 64.1385 345.931 63.1392 346.369 62.3444C346.808 61.5507 347.807 61.2633 348.6 61.701C349.396 62.1401 349.683 63.1384 349.245 63.9312C348.807 64.7249 347.808 65.0139 347.014 64.5757Z" fill="white"/>
<path d="M347.299 63.9935C346.76 63.6966 346.566 63.0192 346.863 62.4797C347.161 61.9416 347.838 61.7443 348.377 62.0413C348.916 62.3393 349.113 63.0181 348.816 63.5566C348.517 64.0952 347.837 64.291 347.299 63.9935Z" fill="#1B2C3E"/>
<path d="M222.394 141.847C222.394 141.847 232.068 136.795 262.018 164.452C262.197 164.623 262.393 164.797 262.572 164.967L261.977 168.41C261.977 168.41 221.262 165.527 222.389 141.985C222.396 141.936 222.384 141.9 222.394 141.847Z" fill="#4391A7"/>
<path d="M222.391 141.845C222.391 141.845 232.065 136.794 262.015 164.451C254.191 163.548 226.512 159.201 222.386 141.983C222.393 141.935 222.381 141.899 222.391 141.845Z" fill="#6C9AA7"/>
<path d="M260.953 167.65L270.051 179.117C270.051 179.117 271.216 171.767 265.942 167.7C265.942 167.7 272.776 164.646 273.954 160.665L261.447 164.803L260.953 167.65Z" fill="#4391A7"/>
<path d="M256.362 166.852C256.362 166.852 257.606 170.328 253.813 173.095L248.343 165.463L246.594 164.887C246.594 164.887 245.886 170.851 241.833 172.921C241.833 172.921 236.994 165.723 236.631 160.608L256.301 166.57" fill="#4391A7"/>
<path d="M256.665 160.388C256.665 160.388 260.143 157.567 259.256 157.359C258.368 157.15 252.007 156.864 251.845 156.835C251.69 156.808 256.665 160.388 256.665 160.388Z" fill="#4391A7"/>
<path d="M241.74 148.996C241.74 148.996 247.098 149.436 247.145 148.846C247.193 148.257 250.105 138.98 248.366 139.928C246.626 140.876 241.119 145.681 239.051 148.53C236.98 151.376 241.53 148.959 241.53 148.959" fill="#4391A7"/>
<path d="M227.171 147.89C227.402 146.552 228.677 145.652 230.019 145.883C231.358 146.116 232.257 147.392 232.024 148.732C231.792 150.074 230.518 150.97 229.177 150.738C227.837 150.507 226.937 149.233 227.171 147.89Z" fill="white"/>
<path d="M228.126 148.018C228.284 147.109 229.151 146.501 230.059 146.659C230.969 146.817 231.577 147.681 231.421 148.59C231.263 149.501 230.397 150.11 229.488 149.953C228.58 149.795 227.97 148.928 228.126 148.018Z" fill="#1B2C3E"/>
<path d="M180.497 104.003C180.497 104.003 185.585 99.5189 207.762 111.765C207.897 111.84 208.04 111.917 208.173 111.992L208.324 114.158C208.324 114.158 183.328 118.46 180.515 104.086C180.512 104.056 180.499 104.037 180.497 104.003Z" fill="#4391A7"/>
<path d="M180.5 104.003C180.5 104.003 185.588 99.5183 207.766 111.764C202.909 112.379 185.561 113.864 180.518 104.087C180.516 104.055 180.502 104.036 180.5 104.003Z" fill="#6C9AA7"/>
<path d="M207.593 113.852L214.785 119.422C214.785 119.422 214.398 114.812 210.611 113.143C210.611 113.143 214.281 110.285 214.402 107.708L207.468 112.061L207.593 113.852Z" fill="#4391A7"/>
<path d="M204.706 114.054C204.706 114.054 205.973 115.966 204.094 118.2L199.662 114.405L198.521 114.317C198.521 114.317 198.978 118.021 196.838 119.871C196.838 119.871 192.851 116.246 191.872 113.213L204.627 113.892" fill="#4391A7"/>
<path d="M203.934 110.107C203.934 110.107 205.613 107.889 205.047 107.895C204.481 107.901 200.598 108.671 200.499 108.678C200.399 108.685 203.934 110.107 203.934 110.107Z" fill="#4391A7"/>
<path d="M193.234 105.448C193.234 105.448 196.533 104.919 196.474 104.556C196.415 104.193 196.796 98.163 195.887 98.9931C194.979 99.8233 192.368 103.541 191.542 105.567C190.716 107.592 193.101 105.458 193.101 105.458" fill="#4391A7"/>
<path d="M184.276 106.943C184.218 106.1 184.854 105.369 185.696 105.309C186.54 105.251 187.27 105.887 187.329 106.729C187.389 107.574 186.753 108.304 185.909 108.362C185.065 108.422 184.333 107.787 184.276 106.943Z" fill="white"/>
<path d="M184.871 106.874C184.831 106.302 185.264 105.806 185.835 105.768C186.408 105.727 186.903 106.158 186.943 106.73C186.985 107.303 186.552 107.801 185.98 107.839C185.408 107.879 184.91 107.447 184.871 106.874Z" fill="#1B2C3E"/>
<path d="M260.338 -10.9115C260.209 -10.795 263.275 -9.07654 262.692 -8.42086C262.72 -5.74868 249.701 -4.7333 248.319 -8.69602C247.285 -9.40511 251.603 -7.38259 254.75 -8.10782C258.115 -8.35611 260.309 -11.3506 260.053 -11.0984" fill="#4391A7"/>
<path d="M248.636 -5.43688C248.579 -5.33157 251.277 -5.27295 250.917 -4.77307C251.703 -2.99743 239.134 1.85081 235.237 -4.41876C233.55 -6.76305 237.308 -3.64042 241.123 -3.59953C244.985 -2.97331 248.905 -5.42889 248.636 -5.43688Z" fill="#4391A7"/>
<path d="M208.082 -12.666C208.142 -12.6493 208.219 -12.6375 208.279 -12.6223C220.079 -9.20432 235.769 -6.45367 247.804 -8.93883C259.948 -10.7111 268.437 -17.7192 268.366 -17.357C268.384 -17.3422 268.402 -17.3273 268.419 -17.313C269.412 -16.3876 270.43 -15.4819 271.47 -14.5987C253.535 11.0409 229.251 6.75908 219.326 1.691C210.235 -2.95125 208.646 -8.8618 208.298 -10.4558C207.927 -12.1738 208.089 -12.6677 208.082 -12.666Z" fill="#4391A7"/>
<path d="M208.27 -12.7321C220.095 -9.22287 235.857 -6.53089 247.869 -9.17385C260.004 -11.0905 268.391 -18.3405 268.316 -17.9762C268.334 -17.9624 268.353 -17.9476 268.371 -17.9327C256.431 1.32747 236.696 2.39963 225.692 -0.310442C213.687 -3.29105 210.412 -10.0533 208.27 -12.7321Z" fill="#6C9AA7"/>
<path d="M260.031 -3.84827C260.031 -3.84827 264.158 -2.96869 263.664 -1.71452C263.169 -0.460352 254.021 3.98835 249.68 3.16983C245.338 2.35283 260.031 -3.84827 260.031 -3.84827Z" fill="#4391A7"/>
<path d="M239.308 4.70629C239.308 4.70629 242.135 7.83802 241.001 8.56548C239.866 9.29143 229.846 7.53404 226.807 4.32737C223.77 1.1191 239.308 4.70629 239.308 4.70629Z" fill="#4391A7"/>
<path d="M81.39 29.8147C81.39 29.8147 83.7065 29.2062 84.0572 27.2677C84.0572 27.2677 78.6901 25.4455 75.3102 24.7806C71.9287 24.1162 81.39 29.8147 81.39 29.8147Z" fill="#4391A7"/>
<path d="M70.4244 20.6637C70.4244 20.6637 72.9065 19.8677 72.6085 19.2662C72.311 18.6637 65.7186 16.4479 64.8662 16.5948C64.0154 16.7438 70.4244 20.6637 70.4244 20.6637Z" fill="#4391A7"/>
<path d="M51.9458 11.4868L52.0111 11.4845C64.9218 10.6126 85.0398 32.6101 86.6332 34.3902C86.7018 34.4512 86.7357 34.4973 86.7357 34.4973L85.5166 37.0416C51.1829 28.3926 51.9458 11.4868 51.9458 11.4868Z" fill="#4391A7"/>
<path d="M52.0081 11.4842C64.9188 10.6123 85.0368 32.6097 86.6302 34.3899C64.3285 27.7208 55.4993 18.1833 52.0081 11.4842Z" fill="#6C9AA7"/>
<path d="M84.2975 36.2847L86.7971 47.4049C86.7971 47.4049 90.4122 42.017 89.1041 38.482C89.1041 38.482 94.2169 38.9089 99.0552 33.7221L85.2294 33.9593L84.2975 36.2847Z" fill="#4391A7"/>
<path d="M77.216 33.8869C77.216 33.8869 77.7487 36.2336 76.8647 37.1673C75.9801 38.0995 69.4484 31.002 69.4484 31.002L77.216 33.8869Z" fill="#4391A7"/>
<path d="M55.0809 16.3076C55.6838 15.6335 56.7241 15.5754 57.3998 16.1803C58.0755 16.7853 58.1326 17.8251 57.525 18.4983C56.9206 19.1755 55.8838 19.2314 55.2081 18.6265C54.5313 18.0185 54.4734 16.9833 55.0809 16.3076Z" fill="white"/>
<path d="M55.5818 16.7165C55.9898 16.2578 56.6949 16.2186 57.1553 16.6311C57.6121 17.0407 57.6523 17.7463 57.2396 18.2016C56.8306 18.6625 56.1255 18.7017 55.6672 18.2901C55.2094 17.88 55.1712 17.1754 55.5818 16.7165Z" fill="#1B2C3E"/>
<path d="M114.693 10.6149C114.693 10.6149 117.544 9.0321 117.349 6.3563C117.349 6.3563 109.661 5.7631 104.978 6.02544C100.292 6.28682 114.693 10.6149 114.693 10.6149Z" fill="#4391A7"/>
<path d="M97.1451 2.23675C97.1451 2.23675 100.151 0.351868 99.5535 -0.341552C98.9591 -1.03711 89.5189 -1.7378 88.4458 -1.25524C87.3726 -0.772675 97.1451 2.23675 97.1451 2.23675Z" fill="#4391A7"/>
<path d="M69.6826 -3.6368L69.7667 -3.6631C86.4989 -9.16264 120.443 13.0651 123.144 14.8769C123.255 14.9346 123.316 14.9846 123.316 14.9846L122.566 18.7496C74.376 18.916 69.6826 -3.6368 69.6826 -3.6368Z" fill="#4391A7"/>
<path d="M69.7675 -3.65938C86.4996 -9.15892 120.443 13.0689 123.145 14.8806C91.4878 13.5994 76.6287 3.99879 69.7675 -3.65938Z" fill="#6C9AA7"/>
<path d="M120.706 18.166L127.749 31.9883C127.749 31.9883 130.7 23.664 127.784 19.4437C127.784 19.4437 134.67 18.2842 139.303 9.81325L121.149 14.786L120.706 18.166Z" fill="#4391A7"/>
<path d="M110.558 17.3878C110.558 17.3878 112.052 20.3036 111.201 21.8312C110.35 23.3613 99.3447 16.2016 99.3447 16.2016L110.558 17.3878Z" fill="#4391A7"/>
<path d="M75.4499 1.6644C76.0189 0.571195 77.3695 0.144917 78.4658 0.715368C79.558 1.28644 79.9833 2.6366 79.4128 3.73036C78.8428 4.82564 77.4921 5.24937 76.3979 4.67988C75.3035 4.10784 74.8784 2.76024 75.4499 1.6644Z" fill="white"/>
<path d="M76.2408 2.03463C76.6257 1.2929 77.5432 1.00364 78.2881 1.39259C79.0278 1.77912 79.3191 2.69503 78.9326 3.43731C78.5447 4.18015 77.6292 4.47036 76.8839 4.08245C76.1426 3.69647 75.8538 2.77795 76.2408 2.03463Z" fill="#1B2C3E"/>
<path d="M16.5916 58.81C16.5995 58.8174 19.72 57.6928 19.8691 54.9974C19.8664 55.0276 12.1858 53.1941 7.38762 52.3706C2.51265 51.6714 16.5175 58.9581 16.5916 58.81Z" fill="#4391A7"/>
<path d="M0.276439 46.7631C0.28279 46.7711 3.70365 45.6807 3.26201 44.8522C2.82094 44.1009 -6.30978 40.8476 -7.49775 40.9061C-8.73156 41.1008 0.238993 46.8326 0.276439 46.7631Z" fill="#4391A7"/>
<path d="M-25.1455 31.9361C-25.1152 31.9389 -25.084 31.9421 -25.0537 31.9449C-8.09226 34.4099 21.0283 62.7301 24.8879 64.3068C25.0003 64.3793 25.0601 64.4375 25.0601 64.4375C24.6941 65.6657 24.3327 66.8948 23.9754 68.1258C-28.4911 59.475 -25.4835 30.2234 -25.1455 31.9361Z" fill="#4391A7"/>
<path d="M-25.0555 31.9415C-8.09398 34.4065 21.0266 62.7267 24.8862 64.3034C-8.45002 58.5556 -21.3797 41.469 -25.0555 31.9415Z" fill="#6C9AA7"/>
<path d="M22.0551 67.2889C24.1521 72.2428 26.4791 77.1817 29.0404 82.0913C29.0593 82.0887 32.3329 73.9252 29.4578 69.4075C29.4545 69.4362 36.8437 68.8705 41.7396 60.5145C35.5979 61.9506 29.2841 63.1047 22.8174 63.9569C22.5605 65.0671 22.3058 66.1783 22.0551 67.2889Z" fill="#4391A7"/>
<path d="M11.3917 64.8316C11.382 64.8308 12.6194 68.0418 11.5441 69.4181C10.3529 70.8916 -0.423225 61.205 -0.308019 61.1201C3.57927 62.4753 7.48019 63.7121 11.3917 64.8316Z" fill="#4391A7"/>
<path d="M35.8119 22.0638C35.8119 22.0638 41.8301 24.2652 42.5197 24.9863C43.2114 25.7083 38.9674 26.5182 38.9674 26.5182L35.6705 22.0861" fill="#4391A7"/>
<path d="M30.3169 13.5288C30.3169 13.5288 32.6701 14.0199 32.5441 13.447C32.4191 12.8745 28.6165 8.44851 25.8629 7.25395L30.3169 13.5288Z" fill="#4391A7"/>
<path d="M13.3871 -4.92957C24.531 0.303478 44.1669 32.4643 44.465 32.96C44.4781 32.9698 44.4781 32.9698 44.4781 32.9698L42.1908 35.6399C42.1908 35.6399 20.0694 22.925 14.618 11.5462C9.39474 0.642942 13.0504 -4.49676 13.367 -4.91624C13.3762 -4.917 13.3871 -4.92957 13.3871 -4.92957Z" fill="#4391A7"/>
<path d="M13.3869 -4.9286C24.5308 0.304448 44.1667 32.4653 44.4648 32.9609C43.7805 32.5826 21.8429 20.3113 16.1567 8.45247C13.2301 2.33165 12.9442 -2.0739 13.3663 -4.91423C13.376 -4.91603 13.3869 -4.9286 13.3869 -4.9286Z" fill="#6C9AA7"/>
<path d="M35.4804 30.9143L32.7141 32.9387C32.7141 32.9387 29.5947 30.3827 27.5354 25.6291L35.4804 30.9143Z" fill="#4391A7"/>
<path d="M40.826 33.9818L42.0914 48.1863C42.0914 48.1863 47.5842 47.2769 46.3983 38.7907C46.3983 38.7907 51.2855 41.396 57.6064 36.5514L42.5673 31.8637L40.826 33.9818Z" fill="#4391A7"/>
<path d="M14.8933 2.40167C15.7888 2.26223 16.6292 2.8734 16.7692 3.77043C16.9097 4.66644 16.2975 5.50636 15.4015 5.64684C14.5044 5.78683 13.6666 5.17559 13.524 4.27862C13.3856 3.38359 13.9973 2.54214 14.8933 2.40167Z" fill="white"/>
<path d="M15.0229 3.02644C15.6304 2.93166 16.2008 3.34633 16.2961 3.95538C16.3914 4.56442 15.9757 5.13427 15.3682 5.22905C14.7612 5.32535 14.1893 4.90869 14.0945 4.30117C13.9987 3.69316 14.4149 3.12225 15.0229 3.02644Z" fill="#1B2C3E"/>
<path d="M342.589 203.32C342.589 203.32 342.332 207.628 341.525 207.613C340.713 207.595 331.45 205.44 330.101 204.707C328.749 203.974 342.566 202.889 342.566 202.889" fill="#4391A7"/>
<path d="M326.251 204.857C326.251 204.857 327.775 207.572 327.03 207.613C326.285 207.654 314.949 206.299 311.235 203.335C307.525 200.372 326.251 204.857 326.251 204.857Z" fill="#4391A7"/>
<path d="M341.604 194.651C341.604 194.651 345.081 192.294 344.306 191.746C343.526 191.196 329.762 190.91 328.991 191.576C328.221 192.243 341.604 194.651 341.604 194.651Z" fill="#4391A7"/>
<path d="M287.422 189.088C287.483 189.071 287.555 189.038 287.615 189.02C310.857 180.221 355.41 198.344 355.41 198.344L355.401 198.434L354.424 203.626C292.832 211.272 288.927 192.738 288.011 191.385C287.104 190.032 287.422 189.088 287.422 189.088Z" fill="#4391A7"/>
<path d="M287.611 189.02C310.854 180.221 355.406 198.344 355.406 198.344L355.398 198.434C305.881 203.091 291.894 194.08 287.611 189.02Z" fill="#6C9AA7"/>
<path d="M353.41 203.215L368.117 217.008C368.117 217.008 367.969 207.686 361.782 202.744C361.782 202.744 370.208 197.668 372.578 192.248L354.719 198.072L353.401 203.029" fill="#4391A7"/>
<path d="M294.385 194.775C294.3 193.296 295.436 192.029 296.915 191.945C298.389 191.861 299.659 192.993 299.739 194.473C299.822 195.951 298.693 197.218 297.213 197.3C295.732 197.384 294.468 196.251 294.385 194.775Z" fill="white"/>
<path d="M295.43 194.664C295.377 193.662 296.142 192.801 297.147 192.746C298.149 192.689 299.013 193.458 299.067 194.463C299.121 195.466 298.354 196.325 297.351 196.384C296.345 196.437 295.487 195.67 295.43 194.664Z" fill="#1B2C3E"/>
<path d="M21.2608 -25.0421C21.2608 -25.0421 27.9375 -27.9337 46.5146 -8.09649C46.6252 -7.97433 46.7462 -7.84989 46.8578 -7.72724L46.2957 -5.46763C46.2957 -5.46763 19.366 -9.35217 21.251 -24.9483C21.2593 -24.9822 21.252 -25.0071 21.2608 -25.0421Z" fill="#4391A7"/>
<path d="M45.6493 -6.02824L51.1445 2.03516C51.1445 2.03516 52.2747 -2.7964 48.9655 -5.75349C48.9655 -5.75349 53.6563 -7.45395 54.6321 -10.0437L46.1154 -7.89788L45.6493 -6.02824Z" fill="#4391A7"/>
<path d="M42.6321 -6.77865C42.6321 -6.77865 43.2917 -4.40681 40.6379 -2.75076L37.369 -8.0886L36.2346 -8.55582C36.2346 -8.55582 35.4754 -4.62503 32.6819 -3.44499C32.6819 -3.44499 29.8115 -8.46464 29.8167 -11.8838L42.6065 -6.96957" fill="#4391A7"/>
</g>
</g>
<defs>
<filter id="filter0_f_808_80" x="-1553" y="-1001" width="3103" height="3035" filterUnits="userSpaceOnUse" color-interpolation-filters="sRGB">
<feFlood flood-opacity="0" result="BackgroundImageFix"/>
<feBlend mode="normal" in="SourceGraphic" in2="BackgroundImageFix" result="shape"/>
<feGaussianBlur stdDeviation="700" result="effect1_foregroundBlur_808_80"/>
</filter>
<clipPath id="clip0_808_80">
<rect width="440" height="956" fill="white"/>
</clipPath>
</defs>
</svg>
